<svg xmlns="http://www.w3.org/2000/svg" viewBox="0 0 1080 1920" preserveAspectRatio="xMidYMid slice"><defs><linearGradient id="g" x1="0" x2="0" y1="0" y2="1"><stop offset="0" stop-color="#0a3d62"/><stop offset=".45" stop-color="#064e67"/><stop offset="1" stop-color="#020617"/></linearGradient><radialGradient id="glow" cx=".5" cy=".05" r=".72"><stop offset="0" stop-color="#93f5ff" stop-opacity=".58"/><stop offset=".44" stop-color="#38bdf8" stop-opacity=".18"/><stop offset="1" stop-color="#020617" stop-opacity="0"/></radialGradient><filter id="b"><feGaussianBlur stdDeviation="10"/></filter></defs><rect width="1080" height="1920" fill="url(#g)"/><rect width="1080" height="1920" fill="url(#glow)"/><g opacity=".28" filter="url(#b)"><path d="M-160 290 C 120 200 290 240 530 160 C 780 76 970 118 1230 34" fill="none" stroke="#a7f3d0" stroke-width="24"/><path d="M-120 460 C 160 380 360 470 610 330 C 820 214 980 264 1200 185" fill="none" stroke="#7dd3fc" stroke-width="16"/><path d="M-80 680 C 240 560 390 710 690 560 C 890 460 1040 505 1210 430" fill="none" stroke="#a78bfa" stroke-width="12"/></g><g opacity=".22"><circle cx="160" cy="620" r="4" fill="#dffaff"/><circle cx="820" cy="510" r="6" fill="#dffaff"/><circle cx="760" cy="960" r="3" fill="#dffaff"/><circle cx="260" cy="1200" r="5" fill="#dffaff"/><circle cx="900" cy="1380" r="4" fill="#dffaff"/></g><g opacity=".12" fill="#dffaff"><path d="M240 980c80-46 142-42 194 0-68 38-130 44-194 0zm183-1 72-38v76z"/><path d="M710 1280c94-54 167-49 228 0-80 45-153 52-228 0zm215-2 82-44v88z"/></g></svg>