<svg xmlns="http://www.w3.org/2000/svg" viewBox="0 0 512 512">
  <defs>
    <radialGradient id="g" cx="35%" cy="30%" r="70%">
      <stop offset="0" stop-color="#fffbd0"/>
      <stop offset="0.34" stop-color="#ffe06d"/>
      <stop offset="0.74" stop-color="#00c9d4"/>
      <stop offset="1" stop-color="#08496c"/>
    </radialGradient>
    <linearGradient id="fin" x1="0" y1="0" x2="1" y2="1"><stop offset="0" stop-color="#fff19a"/><stop offset="1" stop-color="#2fffc8"/></linearGradient>
    <filter id="shadow"><feDropShadow dx="0" dy="16" stdDeviation="14" flood-color="#001a36" flood-opacity="0.35"/></filter>
  </defs>
  <g filter="url(#shadow)">
    <path d="M105 270 C42 214 42 300 105 270 Z" fill="url(#fin)"/>
    <path d="M392 264 C450 208 469 307 392 264 Z" fill="url(#fin)"/>
    <path d="M94 256 C142 158 310 136 402 226 C470 292 345 376 204 352 C142 342 101 305 94 256 Z" fill="url(#g)"/>
    <path d="M205 170 C176 220 176 294 202 348" fill="none" stroke="#ffffff" stroke-opacity="0.58" stroke-width="22" stroke-linecap="round"/>
    <path d="M294 168 C260 230 262 302 299 358" fill="none" stroke="#ffffff" stroke-opacity="0.48" stroke-width="18" stroke-linecap="round"/>
    <path d="M146 276 C198 300 269 299 333 270" fill="none" stroke="#ffffff" stroke-width="8" opacity="0.28" stroke-linecap="round"/>
    <circle cx="345" cy="228" r="34" fill="#fff"/>
    <circle cx="355" cy="232" r="15" fill="#0a2443"/>
    <circle cx="361" cy="225" r="5" fill="#fff"/>
    <path d="M328 294 C352 314 384 308 407 286" fill="none" stroke="#0a2443" stroke-width="9" stroke-linecap="round" opacity="0.65"/>
    <path d="M118 246 C190 186 280 182 372 234" fill="none" stroke="#ffffff" stroke-width="14" opacity="0.35" stroke-linecap="round"/>
  </g>
</svg>