<svg xmlns="http://www.w3.org/2000/svg" viewBox="0 0 1000 1200" preserveAspectRatio="xMidYMid slice"><defs><linearGradient id="water" x1="0" x2="0" y1="0" y2="1"><stop offset="0" stop-color="#1d9bd1"/><stop offset=".36" stop-color="#0d6587"/><stop offset="1" stop-color="#021526"/></linearGradient><radialGradient id="sun" cx=".5" cy="-.08" r=".58"><stop offset="0" stop-color="#e0fbff" stop-opacity=".62"/><stop offset=".48" stop-color="#38bdf8" stop-opacity=".16"/><stop offset="1" stop-color="#38bdf8" stop-opacity="0"/></radialGradient></defs><rect width="1000" height="1200" fill="url(#water)"/><rect width="1000" height="1200" fill="url(#sun)"/><g opacity=".18" stroke="#e0fbff" stroke-width="2"><path d="M-40 180c140-60 240 60 380 0s240 60 380 0 240 60 380 0" fill="none"/><path d="M-60 300c180-70 320 70 500 0s320 70 500 0" fill="none"/><path d="M-80 450c200-82 360 82 560 0s360 82 560 0" fill="none"/></g><g opacity=".15" fill="#e0fbff"><circle cx="120" cy="780" r="7"/><circle cx="820" cy="690" r="5"/><circle cx="620" cy="980" r="9"/><circle cx="290" cy="1040" r="4"/></g><g opacity=".20" fill="#001525"><path d="M230 870c110-60 190-54 260 0-88 50-173 58-260 0zm250-1 88-48v96z"/><path d="M710 620c80-45 140-42 198 0-70 40-132 47-198 0zm185-1 67-37v74z"/></g></svg>