<svg xmlns="http://www.w3.org/2000/svg" viewBox="0 0 1080 1920" role="img" aria-label="Aqua Fantasia painterly ocean fishing background">
  <defs>
    <linearGradient id="sky" x1="0" y1="0" x2="0" y2="1">
      <stop offset="0" stop-color="#8de7ff"/>
      <stop offset="0.42" stop-color="#b9f3ff"/>
      <stop offset="0.72" stop-color="#f9d7a4"/>
      <stop offset="1" stop-color="#5ec2dd"/>
    </linearGradient>
    <linearGradient id="sea" x1="0" y1="0" x2="0" y2="1">
      <stop offset="0" stop-color="#36b9d4"/>
      <stop offset="0.36" stop-color="#1589ae"/>
      <stop offset="0.72" stop-color="#075579"/>
      <stop offset="1" stop-color="#04304b"/>
    </linearGradient>
    <linearGradient id="sun" x1="0" y1="0" x2="1" y2="1">
      <stop offset="0" stop-color="#fffbd1"/>
      <stop offset="1" stop-color="#ffbd76"/>
    </linearGradient>
    <linearGradient id="boat" x1="0" y1="0" x2="0" y2="1">
      <stop offset="0" stop-color="#b8794b"/>
      <stop offset="0.55" stop-color="#7d462f"/>
      <stop offset="1" stop-color="#3d1e18"/>
    </linearGradient>
    <radialGradient id="glow" cx="50%" cy="46%" r="62%">
      <stop offset="0" stop-color="#ffffff" stop-opacity="0.62"/>
      <stop offset="0.45" stop-color="#bbf7ff" stop-opacity="0.18"/>
      <stop offset="1" stop-color="#001d34" stop-opacity="0"/>
    </radialGradient>
    <filter id="soft" x="-20%" y="-20%" width="140%" height="140%"><feGaussianBlur stdDeviation="10"/></filter>
    <filter id="drop" x="-30%" y="-30%" width="160%" height="160%"><feDropShadow dx="0" dy="22" stdDeviation="20" flood-color="#00263f" flood-opacity="0.38"/></filter>
  </defs>
  <rect width="1080" height="910" fill="url(#sky)"/>
  <ellipse cx="815" cy="230" rx="118" ry="118" fill="url(#sun)" opacity="0.95"/>
  <ellipse cx="810" cy="235" rx="180" ry="180" fill="#fff6ba" opacity="0.23" filter="url(#soft)"/>
  <g opacity="0.78" filter="url(#soft)">
    <ellipse cx="190" cy="210" rx="128" ry="35" fill="#fff"/>
    <ellipse cx="265" cy="196" rx="96" ry="42" fill="#fff"/>
    <ellipse cx="840" cy="340" rx="150" ry="38" fill="#fff"/>
    <ellipse cx="742" cy="325" rx="98" ry="44" fill="#fff"/>
  </g>
  <path d="M0 740 C110 640 220 590 335 690 C430 772 565 655 650 614 C765 560 892 620 1080 514 L1080 910 L0 910 Z" fill="#3ea0bb" opacity="0.36"/>
  <path d="M0 805 C150 710 280 710 420 770 C545 823 647 714 742 690 C854 662 970 732 1080 690 L1080 910 L0 910 Z" fill="#1e6f92" opacity="0.38"/>
  <rect y="690" width="1080" height="1230" fill="url(#sea)"/>
  <rect width="1080" height="1920" fill="url(#glow)" opacity="0.78"/>
  <g opacity="0.34">
    <path d="M-80 760 C80 702 230 826 378 766 C540 700 670 805 846 752 C990 708 1130 780 1240 732" fill="none" stroke="#e7ffff" stroke-width="18" stroke-linecap="round"/>
    <path d="M-100 850 C70 792 225 910 402 842 C570 778 728 880 900 820 C1020 780 1145 842 1210 804" fill="none" stroke="#a7f4ff" stroke-width="10" stroke-linecap="round"/>
    <path d="M-50 980 C110 920 260 1030 424 968 C600 900 720 1020 940 952 C1035 924 1125 965 1200 930" fill="none" stroke="#9adbe9" stroke-width="9" stroke-linecap="round" opacity="0.55"/>
  </g>
  <g opacity="0.44">
    <path d="M120 1180 C260 1120 390 1208 540 1160 C710 1106 855 1198 1010 1140" fill="none" stroke="#c8faff" stroke-width="5" stroke-linecap="round"/>
    <path d="M-20 1340 C150 1280 280 1385 455 1328 C620 1275 802 1370 1030 1300" fill="none" stroke="#86e7ff" stroke-width="4" stroke-linecap="round" opacity="0.6"/>
  </g>
  <g filter="url(#drop)">
    <ellipse cx="550" cy="742" rx="275" ry="44" fill="#043a55" opacity="0.36"/>
    <path d="M310 610 C424 688 672 690 796 612 C764 756 642 823 506 815 C404 807 336 738 310 610 Z" fill="url(#boat)"/>
    <path d="M330 628 C448 680 654 680 776 628" fill="none" stroke="#f3c38a" stroke-width="20" stroke-linecap="round" opacity="0.86"/>
    <path d="M390 660 C488 694 610 694 720 660" fill="none" stroke="#5a2d25" stroke-width="14" stroke-linecap="round" opacity="0.56"/>
    <g transform="translate(514 540)">
      <ellipse cx="0" cy="-72" rx="45" ry="38" fill="#ffd59d"/>
      <path d="M-88 -99 C-18 -155 72 -137 105 -78 C38 -93 -20 -91 -88 -99 Z" fill="#e4b855"/>
      <path d="M-108 -82 C-35 -112 34 -113 120 -78 C60 -61 -35 -59 -108 -82 Z" fill="#f3d878"/>
      <path d="M-48 -30 C-22 -67 40 -68 68 -30 C91 4 78 92 58 138 C18 155 -45 148 -75 116 C-69 42 -74 -4 -48 -30 Z" fill="#52c5e8"/>
      <path d="M68 -18 C125 24 188 75 220 130" fill="none" stroke="#5a3823" stroke-width="12" stroke-linecap="round"/>
      <path d="M213 128 C292 105 360 110 432 133" fill="none" stroke="#503626" stroke-width="7" stroke-linecap="round"/>
      <path d="M434 134 C446 156 456 188 456 220" fill="none" stroke="#5fd6ff" stroke-width="4" stroke-linecap="round"/>
    </g>
  </g>
  <g opacity="0.55">
    <circle cx="190" cy="1180" r="5" fill="#dffbff"/>
    <circle cx="860" cy="980" r="4" fill="#dffbff"/>
    <circle cx="748" cy="1350" r="7" fill="#dffbff" opacity="0.5"/>
    <circle cx="320" cy="1460" r="4" fill="#dffbff" opacity="0.54"/>
  </g>
</svg>
