<svg xmlns="http://www.w3.org/2000/svg" viewBox="0 0 900 1600"><defs><linearGradient id="g" x1="0" y1="0" x2="0" y2="1"><stop stop-color="#06244a"/><stop offset=".45" stop-color="#0b6178"/><stop offset="1" stop-color="#020617"/></linearGradient><radialGradient id="r" cx="50%" cy="8%" r="70%"><stop stop-color="#7dd3fc" stop-opacity=".55"/><stop offset=".35" stop-color="#22d3ee" stop-opacity=".13"/><stop offset="1" stop-color="#000" stop-opacity="0"/></radialGradient><filter id="b"><feGaussianBlur stdDeviation="18"/></filter></defs><rect width="900" height="1600" fill="url(#g)"/><rect width="900" height="1600" fill="url(#r)"/><path d="M0 285 C160 210 270 360 440 275 C610 190 740 245 900 185 L900 0 L0 0Z" fill="#bff7ff" opacity=".09"/><g opacity=".20" filter="url(#b)"><ellipse cx="180" cy="260" rx="170" ry="48" fill="#54e9ff"/><ellipse cx="720" cy="390" rx="230" ry="70" fill="#8b5cf6"/><ellipse cx="480" cy="780" rx="320" ry="90" fill="#10b981"/></g><g opacity=".11" stroke="#dffbff" stroke-width="2"><path d="M-40 540 C160 500 210 620 380 560 S730 480 960 590"/><path d="M-50 760 C150 700 260 850 470 760 S730 720 960 815"/><path d="M-40 1040 C160 1000 290 1110 500 1032 S760 960 970 1080"/></g><g fill="#e0faff" opacity=".20"><circle cx="120" cy="980" r="4"/><circle cx="245" cy="1110" r="3"/><circle cx="690" cy="930" r="5"/><circle cx="770" cy="1240" r="3"/><circle cx="430" cy="1320" r="4"/></g></svg>