<svg xmlns="http://www.w3.org/2000/svg" width="1200" height="1800" viewBox="0 0 1200 1800">
  <defs>
    <linearGradient id="sea" x1="0" y1="0" x2="0" y2="1"><stop stop-color="#093a5b"/><stop offset="0.45" stop-color="#062844"/><stop offset="1" stop-color="#020617"/></linearGradient>
    <radialGradient id="glow" cx="50%" cy="18%" r="62%"><stop stop-color="#67e8f9" stop-opacity=".34"/><stop offset=".55" stop-color="#2563eb" stop-opacity=".10"/><stop offset="1" stop-color="#020617" stop-opacity="0"/></radialGradient>
    <filter id="soft"><feGaussianBlur stdDeviation="18"/></filter>
    <filter id="shine"><feGaussianBlur stdDeviation="4"/><feColorMatrix type="matrix" values="1 0 0 0 0  0 1 0 0 0.08  0 0 1 0 0.18  0 0 0 .75 0"/></filter>
    
  </defs>
  <rect width="100%" height="100%" fill="url(#sea)"/>
  <rect width="100%" height="100%" fill="url(#glow)"/>
  
  <g opacity=".55" filter="url(#soft)"><circle cx="240" cy="180" r="230" fill="#22d3ee"/><circle cx="980" cy="240" r="260" fill="#7c3aed"/><circle cx="520" cy="1080" r="360" fill="#0ea5e9"/></g>
  <g opacity=".24" stroke="#bae6fd" stroke-width="2"><path d="M-30 360 C250 250 380 510 650 390 S1030 360 1230 250" fill="none"/><path d="M-60 580 C260 470 430 710 710 610 S1080 550 1260 680" fill="none"/><path d="M-40 840 C270 780 410 940 690 880 S1100 780 1280 920" fill="none"/></g>
  <g opacity=".18" fill="#ecfeff"><circle cx="190" cy="640" r="5"/><circle cx="860" cy="720" r="4"/><circle cx="1010" cy="980" r="7"/><circle cx="360" cy="1180" r="4"/><circle cx="760" cy="1300" r="5"/></g>
  <g opacity=".16" stroke="#67e8f9" stroke-width="10" fill="none"><path d="M240 1500 C420 1350 760 1340 980 1490"/><path d="M310 1560 C510 1460 710 1460 900 1560"/></g>

</svg>