<svg xmlns="http://www.w3.org/2000/svg" viewBox="0 0 1200 720" role="img" aria-label="Aqua Fantasia v32_region_showcase.svg">
<defs>
<linearGradient id="sea" x1="0" x2="1" y1="0" y2="1"><stop offset="0" stop-color="#082f49"/><stop offset=".48" stop-color="#075985"/><stop offset="1" stop-color="#020617"/></linearGradient>
<radialGradient id="glow" cx="50%" cy="20%" r="65%"><stop offset="0" stop-color="#67e8f9" stop-opacity=".52"/><stop offset=".55" stop-color="#38bdf8" stop-opacity=".12"/><stop offset="1" stop-color="#020617" stop-opacity="0"/></radialGradient>
<filter id="soft"><feGaussianBlur stdDeviation="10"/></filter>
</defs>
<rect width="1200" height="720" fill="url(#sea)"/>
<rect width="1200" height="720" fill="url(#glow)"/>

<rect x="70" y="90" width="250" height="420" rx="38" fill="#0e7490" opacity=".35"/><rect x="350" y="140" width="250" height="420" rx="38" fill="#0369a1" opacity=".35"/><rect x="630" y="90" width="250" height="420" rx="38" fill="#7c3aed" opacity=".28"/><rect x="910" y="140" width="220" height="420" rx="38" fill="#f59e0b" opacity=".20"/>
<g stroke="#e0f2fe" stroke-width="3" opacity=".25"><path d="M105 360h175M385 390h175M665 360h175M940 390h150"/><path d="M120 260c60-50 105-50 155 0M402 292c60-50 105-50 155 0M682 260c60-50 105-50 155 0"/></g>
</svg>