<svg xmlns="http://www.w3.org/2000/svg" viewBox="0 0 1200 720" role="img" aria-label="Aqua Fantasia v32_fish_gallery.svg">
<defs>
<linearGradient id="sea" x1="0" x2="1" y1="0" y2="1"><stop offset="0" stop-color="#082f49"/><stop offset=".48" stop-color="#075985"/><stop offset="1" stop-color="#020617"/></linearGradient>
<radialGradient id="glow" cx="50%" cy="20%" r="65%"><stop offset="0" stop-color="#67e8f9" stop-opacity=".52"/><stop offset=".55" stop-color="#38bdf8" stop-opacity=".12"/><stop offset="1" stop-color="#020617" stop-opacity="0"/></radialGradient>
<filter id="soft"><feGaussianBlur stdDeviation="10"/></filter>
</defs>
<rect width="1200" height="720" fill="url(#sea)"/>
<rect width="1200" height="720" fill="url(#glow)"/>

<path d="M160 380 C260 260 480 230 680 340 C520 460 300 500 160 380Z" fill="#67e8f9" opacity=".26"/>
<path d="M670 340 L820 250 L790 420Z" fill="#67e8f9" opacity=".22"/>
<circle cx="250" cy="360" r="10" fill="#f8fafc" opacity=".7"/>
<path d="M300 390 C420 420 520 405 620 350" fill="none" stroke="#e0f2fe" stroke-width="10" opacity=".22"/>
<path d="M250 160 C340 95 500 120 590 190 C470 250 330 245 250 160Z" fill="#facc15" opacity=".22"/>
<path d="M720 520 C830 430 960 460 1040 535 C930 610 800 615 720 520Z" fill="#a78bfa" opacity=".22"/>
</svg>