<svg xmlns="http://www.w3.org/2000/svg" viewBox="0 0 1200 720" role="img" aria-label="Aqua Fantasia v32_command_center.svg">
<defs>
<linearGradient id="sea" x1="0" x2="1" y1="0" y2="1"><stop offset="0" stop-color="#082f49"/><stop offset=".48" stop-color="#075985"/><stop offset="1" stop-color="#020617"/></linearGradient>
<radialGradient id="glow" cx="50%" cy="20%" r="65%"><stop offset="0" stop-color="#67e8f9" stop-opacity=".52"/><stop offset=".55" stop-color="#38bdf8" stop-opacity=".12"/><stop offset="1" stop-color="#020617" stop-opacity="0"/></radialGradient>
<filter id="soft"><feGaussianBlur stdDeviation="10"/></filter>
</defs>
<rect width="1200" height="720" fill="url(#sea)"/>
<rect width="1200" height="720" fill="url(#glow)"/>

<circle cx="930" cy="120" r="180" fill="#67e8f9" opacity=".10" filter="url(#soft)"/>
<path d="M0 540 C180 470 280 600 470 520 S820 470 1200 560 V720 H0Z" fill="#020617" opacity=".42"/>
<path d="M60 210 C220 150 370 250 530 190 S820 100 1080 190" fill="none" stroke="#67e8f9" stroke-width="3" opacity=".24"/>
<g opacity=".35" stroke="#e0f2fe" stroke-width="1"><path d="M120 110h280M760 170h260M650 330h360"/><path d="M140 140h120M820 204h110"/></g>
<g fill="#facc15" opacity=".45"><circle cx="980" cy="255" r="8"/><circle cx="1040" cy="318" r="5"/><circle cx="900" cy="345" r="4"/></g>
</svg>