<svg xmlns="http://www.w3.org/2000/svg" viewBox="0 0 1200 720" role="img" aria-label="Aqua Fantasia v32_mobile_hero.svg">
<defs>
<linearGradient id="sea" x1="0" x2="1" y1="0" y2="1"><stop offset="0" stop-color="#082f49"/><stop offset=".48" stop-color="#075985"/><stop offset="1" stop-color="#020617"/></linearGradient>
<radialGradient id="glow" cx="50%" cy="20%" r="65%"><stop offset="0" stop-color="#67e8f9" stop-opacity=".52"/><stop offset=".55" stop-color="#38bdf8" stop-opacity=".12"/><stop offset="1" stop-color="#020617" stop-opacity="0"/></radialGradient>
<filter id="soft"><feGaussianBlur stdDeviation="10"/></filter>
</defs>
<rect width="1200" height="720" fill="url(#sea)"/>
<rect width="1200" height="720" fill="url(#glow)"/>

<path d="M0 0H1200V720H0z" fill="url(#sea)"/>
<circle cx="180" cy="90" r="210" fill="#a78bfa" opacity=".11" filter="url(#soft)"/>
<circle cx="1020" cy="160" r="240" fill="#22d3ee" opacity=".13" filter="url(#soft)"/>
<path d="M0 485 C140 440 260 520 420 485 S690 420 880 488 S1090 560 1200 510 V720 H0Z" fill="#03111f" opacity=".5"/>
<path d="M120 330 C230 270 340 330 450 280 C580 220 690 300 780 240 C850 195 930 210 1020 260" fill="none" stroke="#bae6fd" stroke-width="3" opacity=".22"/>
<g fill="#fff" opacity=".25"><circle cx="240" cy="220" r="5"/><circle cx="310" cy="180" r="3"/><circle cx="980" cy="230" r="4"/><circle cx="1030" cy="190" r="2"/></g>
</svg>