<svg xmlns="http://www.w3.org/2000/svg" viewBox="0 0 960 540" role="img" aria-label="Lake Panorama">
  <defs>
    <linearGradient id="g" x1="0" x2="1" y1="0" y2="1"><stop stop-color="#064e3b"/><stop offset=".52" stop-color="#0891b2"/><stop offset="1" stop-color="#0f172a"/></linearGradient>
    <radialGradient id="r" cx="74%" cy="18%" r="55%"><stop stop-color="#ffffff" stop-opacity=".42"/><stop offset=".25" stop-color="#67e8f9" stop-opacity=".18"/><stop offset="1" stop-color="#020617" stop-opacity="0"/></radialGradient>
    <filter id="blur"><feGaussianBlur stdDeviation="8"/></filter>
  </defs>
  <rect width="960" height="540" fill="url(#g)"/>
  <rect width="960" height="540" fill="url(#r)"/>
  <path d="M0 374 C150 306 250 426 400 360 S640 288 960 354 V540 H0Z" fill="#020617" opacity=".34"/>
  <path d="M0 424 C165 362 278 470 428 410 S707 333 960 405 V540 H0Z" fill="#0f172a" opacity=".42"/>
  <g opacity=".38" filter="url(#blur)"><circle cx="178" cy="132" r="46" fill="#a7f3d0"/><circle cx="766" cy="116" r="58" fill="#bfdbfe"/><circle cx="666" cy="382" r="64" fill="#fef3c7"/></g>
  <g fill="none" stroke="#e0f2fe" stroke-opacity=".22" stroke-width="2"><path d="M80 230 C170 170 260 290 350 225 S530 165 620 225 800 290 890 220"/><path d="M120 285 C220 232 300 335 405 282 S590 230 700 284 820 332 900 280"/></g>
  <text x="42" y="74" fill="#ecfeff" font-size="34" font-weight="900" font-family="Arial, sans-serif">Lake Panorama</text>
  <text x="44" y="112" fill="#bae6fd" fill-opacity=".72" font-size="16" font-weight="700" font-family="Arial, sans-serif">AquaFantasia Nexus Forge 3.3</text>
</svg>