<svg xmlns="http://www.w3.org/2000/svg" viewBox="0 0 720 420" role="img" aria-label="BOSS GATE">
<defs>
  <linearGradient id="g" x1="0" y1="0" x2="1" y2="1"><stop stop-color="#111827"/><stop offset=".55" stop-color="#fb7185" stop-opacity=".82"/><stop offset="1" stop-color="#facc15" stop-opacity=".65"/></linearGradient>
  <radialGradient id="r" cx="50%" cy="20%" r="78%"><stop stop-color="#ecfeff" stop-opacity=".45"/><stop offset=".38" stop-color="#fb7185" stop-opacity=".14"/><stop offset="1" stop-color="#020617" stop-opacity=".95"/></radialGradient>
  <filter id="blur"><feGaussianBlur stdDeviation="10"/></filter>
</defs>
<rect width="720" height="420" rx="34" fill="#020617"/>
<rect width="720" height="420" rx="34" fill="url(#r)"/>
<path d="M-30 320 C110 245 210 392 360 300 C510 208 604 288 750 220 L750 450 L-30 450Z" fill="url(#g)" opacity=".45"/>
<path d="M0 125 C100 88 174 155 260 124 C365 86 455 126 548 94 C620 70 675 88 728 54" fill="none" stroke="#ecfeff" stroke-opacity=".22" stroke-width="3"/>
<g opacity=".38" filter="url(#blur)"><circle cx="124" cy="82" r="62" fill="#fb7185"/><circle cx="598" cy="122" r="84" fill="#facc15"/><circle cx="442" cy="322" r="90" fill="#111827"/></g>
<g opacity=".50"><circle cx="70" cy="60" r="2" fill="#e0f2fe" opacity=".35"/><circle cx="128" cy="102" r="3" fill="#e0f2fe" opacity=".43"/><circle cx="186" cy="144" r="4" fill="#e0f2fe" opacity=".51"/><circle cx="244" cy="186" r="5" fill="#e0f2fe" opacity=".59"/><circle cx="302" cy="228" r="2" fill="#e0f2fe" opacity=".67"/><circle cx="360" cy="60" r="3" fill="#e0f2fe" opacity=".35"/><circle cx="418" cy="102" r="4" fill="#e0f2fe" opacity=".43"/><circle cx="476" cy="144" r="5" fill="#e0f2fe" opacity=".51"/><circle cx="534" cy="186" r="2" fill="#e0f2fe" opacity=".59"/><circle cx="592" cy="228" r="3" fill="#e0f2fe" opacity=".67"/><circle cx="650" cy="60" r="4" fill="#e0f2fe" opacity=".35"/></g>
<text x="38" y="62" fill="#e0f2fe" font-size="22" font-family="system-ui, sans-serif" font-weight="900" letter-spacing="2">BOSS GATE</text>
<text x="38" y="92" fill="#bae6fd" opacity=".72" font-size="13" font-family="system-ui, sans-serif" font-weight="700">Aqua Fantasia Visual Asset · v3.4</text>
</svg>