<svg xmlns="http://www.w3.org/2000/svg" viewBox="0 0 960 540" role="img" aria-label="Aqua UI Frame">
  <defs>
    <linearGradient id="g" x1="0" y1="0" x2="1" y2="1"><stop stop-color="#020617"/><stop offset=".45" stop-color="#075985"/><stop offset="1" stop-color="#0f172a"/></linearGradient>
    <radialGradient id="r" cx="68%" cy="20%" r="70%"><stop stop-color="#67e8f9" stop-opacity=".62"/><stop offset=".42" stop-color="#e0f2fe" stop-opacity=".20"/><stop offset="1" stop-color="#020617" stop-opacity="0"/></radialGradient>
    <filter id="blur"><feGaussianBlur stdDeviation="18"/></filter>
    <pattern id="p" width="80" height="80" patternUnits="userSpaceOnUse"><path d="M0 42Q20 18 40 42T80 42" fill="none" stroke="rgba(255,255,255,.12)" stroke-width="3"/></pattern>
  </defs>
  <rect width="960" height="540" fill="url(#g)"/>
  <rect width="960" height="540" fill="url(#r)"/>
  <rect width="960" height="540" fill="url(#p)" opacity=".35"/>
  <circle cx="770" cy="115" r="88" fill="#67e8f9" opacity=".24" filter="url(#blur)"/>
  <circle cx="155" cy="400" r="140" fill="#e0f2fe" opacity=".14" filter="url(#blur)"/>
  <path d="M70 375 C230 300 330 425 510 330 S760 260 910 330 L910 540 L70 540Z" fill="#020617" opacity=".45"/>
  <path d="M96 356 C260 290 345 386 510 318 S745 250 888 310" fill="none" stroke="rgba(255,255,255,.28)" stroke-width="4"/>
  <g opacity=".82">
    <path d="M465 232c52-42 105-38 154 8-48 48-102 53-154-8Z" fill="rgba(255,255,255,.20)" stroke="rgba(255,255,255,.38)" stroke-width="3"/>
    <circle cx="590" cy="229" r="8" fill="#f8fafc"/>
    <path d="M466 232l-66-38 20 38-20 38z" fill="rgba(255,255,255,.16)" stroke="rgba(255,255,255,.34)" stroke-width="3"/>
  </g>
  <text x="54" y="84" font-family="system-ui,Arial" font-size="34" font-weight="900" fill="#e0f2fe">Aqua UI Frame</text>
  <text x="56" y="122" font-family="system-ui,Arial" font-size="15" font-weight="700" fill="rgba(224,242,254,.72)">AquaFantasia v3.5 mobile SVG art asset · ui frame</text>
</svg>