<svg xmlns="http://www.w3.org/2000/svg" viewBox="0 0 900 540" role="img" aria-label="BOSS CREST">
  <defs>
    <linearGradient id="g" x1="0" x2="1" y1="0" y2="1"><stop stop-color="#1f0712"/><stop offset="0.52" stop-color="#7f1d1d"/><stop offset="1" stop-color="#f59e0b"/></linearGradient>
    <radialGradient id="r" cx="72%" cy="18%" r="58%"><stop stop-color="#ffffff" stop-opacity=".30"/><stop offset=".36" stop-color="#67e8f9" stop-opacity=".12"/><stop offset="1" stop-color="#000" stop-opacity="0"/></radialGradient>
    <filter id="glow"><feGaussianBlur stdDeviation="8" result="b"/><feMerge><feMergeNode in="b"/><feMergeNode in="SourceGraphic"/></feMerge></filter>
    <pattern id="p" width="90" height="90" patternUnits="userSpaceOnUse"><path d="M0 45Q22 18 45 45t45 0" fill="none" stroke="#fff" stroke-opacity=".08" stroke-width="3"/></pattern>
  </defs>
  <rect width="900" height="540" rx="52" fill="url(#g)"/>
  <rect width="900" height="540" rx="52" fill="url(#p)" opacity=".72"/>
  <rect width="900" height="540" rx="52" fill="url(#r)"/>
  <g filter="url(#glow)" opacity=".92">
    <path d="M85 365C190 270 285 428 395 325S610 220 806 310" fill="none" stroke="#e0f2fe" stroke-opacity=".30" stroke-width="18" stroke-linecap="round"/>
    <path d="M110 402C252 330 352 455 492 352S670 304 814 384" fill="none" stroke="#99f6e4" stroke-opacity=".24" stroke-width="10" stroke-linecap="round"/>
    <circle cx="702" cy="136" r="58" fill="#fff" fill-opacity=".13"/>
    <circle cx="178" cy="150" r="28" fill="#fff" fill-opacity=".12"/>
    <circle cx="518" cy="104" r="16" fill="#fff" fill-opacity=".10"/>
  </g>
  <g opacity=".38">
    <path d="M205 260c48-38 106-38 158 0-50 36-107 38-158 0Z" fill="#e0f2fe"/>
    <circle cx="335" cy="257" r="7" fill="#020617"/>
    <path d="M210 260l-42-31v62z" fill="#e0f2fe"/>
    <path d="M610 300c36-28 80-28 120 0-39 27-81 28-120 0Z" fill="#fef3c7"/>
    <circle cx="710" cy="297" r="5" fill="#020617"/>
  </g>
  <text x="58" y="82" fill="#f8fafc" fill-opacity=".90" font-size="34" font-family="Arial, sans-serif" font-weight="900">BOSS CREST</text>
  <text x="60" y="120" fill="#bae6fd" fill-opacity=".72" font-size="15" font-family="Arial, sans-serif" font-weight="700">AquaFantasia v3.6 mobile SVG art asset</text>
</svg>