<svg xmlns="http://www.w3.org/2000/svg" viewBox="0 0 1440 640" preserveAspectRatio="xMidYMid slice">
<defs>
<linearGradient id="bg" x1="0" y1="0" x2="1" y2="1"><stop offset="0" stop-color="#06101d"/><stop offset=".45" stop-color="#4fd1c5"/><stop offset="1" stop-color="#70d6a6"/></linearGradient>
<radialGradient id="g0" cx="30%" cy="20%" r="70%"><stop offset="0" stop-color="#f5c76b"/><stop offset="1" stop-color="#06101d" stop-opacity="0"/></radialGradient>
<radialGradient id="g1" cx="70%" cy="15%" r="65%"><stop offset="0" stop-color="#ff8a6b"/><stop offset="1" stop-color="#4fd1c5" stop-opacity="0"/></radialGradient>
<radialGradient id="g2" cx="50%" cy="80%" r="72%"><stop offset="0" stop-color="#b794f4"/><stop offset="1" stop-color="#70d6a6" stop-opacity="0"/></radialGradient>
<filter id="soft"><feGaussianBlur stdDeviation="18"/></filter>
<pattern id="grain" width="96" height="96" patternUnits="userSpaceOnUse"><path d="M0 20 Q24 0 48 20 T96 20 M0 58 Q24 38 48 58 T96 58" fill="none" stroke="#fff" stroke-opacity=".055" stroke-width="1"/></pattern>
</defs>
<rect width="1440" height="640" fill="url(#bg)"/>
<rect width="1440" height="640" fill="url(#grain)" opacity=".65"/>
<path d="M20 0 L260 640" stroke="#4fd1c5" stroke-width="1.2" opacity=".07"/><path d="M110 0 L320 640" stroke="#70d6a6" stroke-width="1.2" opacity=".07"/><path d="M200 0 L380 640" stroke="#f5c76b" stroke-width="1.2" opacity=".07"/><path d="M290 0 L440 640" stroke="#ff8a6b" stroke-width="1.2" opacity=".07"/><path d="M380 0 L500 640" stroke="#b794f4" stroke-width="1.2" opacity=".07"/><path d="M470 0 L560 640" stroke="#06101d" stroke-width="1.2" opacity=".07"/><path d="M560 0 L620 640" stroke="#4fd1c5" stroke-width="1.2" opacity=".07"/><path d="M650 0 L680 640" stroke="#70d6a6" stroke-width="1.2" opacity=".07"/><path d="M740 0 L740 640" stroke="#f5c76b" stroke-width="1.2" opacity=".07"/><path d="M830 0 L800 640" stroke="#ff8a6b" stroke-width="1.2" opacity=".07"/><path d="M920 0 L860 640" stroke="#b794f4" stroke-width="1.2" opacity=".07"/><path d="M1010 0 L920 640" stroke="#06101d" stroke-width="1.2" opacity=".07"/><g filter="url(#soft)"><circle cx="40" cy="60" r="48" fill="url(#g0)" opacity="0.080"/><circle cx="157" cy="143" r="76" fill="url(#g1)" opacity="0.115"/><circle cx="274" cy="226" r="104" fill="url(#g2)" opacity="0.150"/><circle cx="391" cy="309" r="132" fill="url(#g0)" opacity="0.080"/><circle cx="508" cy="392" r="48" fill="url(#g1)" opacity="0.115"/><circle cx="625" cy="475" r="76" fill="url(#g2)" opacity="0.150"/><circle cx="742" cy="138" r="104" fill="url(#g0)" opacity="0.080"/><circle cx="139" cy="221" r="132" fill="url(#g1)" opacity="0.115"/><circle cx="256" cy="304" r="48" fill="url(#g2)" opacity="0.150"/></g><path d="M0 420 C160 360 300 500 480 430 S820 350 960 430 S1260 500 1440 410 V640 H0Z" fill="#70d6a6" opacity="0.140"/><path d="M0 454 C160 390 300 518 480 460 S820 372 960 458 S1260 514 1440 436 V640 H0Z" fill="#f5c76b" opacity="0.122"/><path d="M0 488 C160 420 300 536 480 490 S820 394 960 486 S1260 528 1440 462 V640 H0Z" fill="#ff8a6b" opacity="0.104"/><path d="M0 522 C160 450 300 554 480 520 S820 416 960 514 S1260 542 1440 488 V640 H0Z" fill="#b794f4" opacity="0.086"/><path d="M0 556 C160 480 300 572 480 550 S820 438 960 542 S1260 556 1440 514 V640 H0Z" fill="#06101d" opacity="0.068"/><g><path d="M180 240 c56 -30 120 -26 168 0 c-48 32 -112 38 -168 0z" fill="#f5c76b" opacity=".18"/><path d="M178 240 l-38 -24 l8 24 l-8 24z" fill="#ff8a6b" opacity=".16"/><path d="M390 302 c56 -30 120 -26 168 0 c-48 32 -112 38 -168 0z" fill="#ff8a6b" opacity=".18"/><path d="M388 302 l-38 -24 l8 24 l-8 24z" fill="#b794f4" opacity=".16"/><path d="M600 364 c56 -30 120 -26 168 0 c-48 32 -112 38 -168 0z" fill="#b794f4" opacity=".18"/><path d="M598 364 l-38 -24 l8 24 l-8 24z" fill="#06101d" opacity=".16"/><path d="M810 240 c56 -30 120 -26 168 0 c-48 32 -112 38 -168 0z" fill="#06101d" opacity=".18"/><path d="M808 240 l-38 -24 l8 24 l-8 24z" fill="#4fd1c5" opacity=".16"/><path d="M1020 302 c56 -30 120 -26 168 0 c-48 32 -112 38 -168 0z" fill="#4fd1c5" opacity=".18"/><path d="M1018 302 l-38 -24 l8 24 l-8 24z" fill="#70d6a6" opacity=".16"/></g>
<path d="M0 90 C260 150 520 28 780 112 S1180 190 1440 82" fill="none" stroke="#ff8a6b" stroke-width="4" opacity=".16"/>
<path d="M96 548 C360 500 580 614 840 546 S1220 496 1390 570" fill="none" stroke="#f5c76b" stroke-width="6" opacity=".18"/>
<text x="60" y="116" fill="#fff" opacity=".11" font-family="Arial, sans-serif" font-size="42" font-weight="900" letter-spacing="8">PALETTE</text>
</svg>