<svg xmlns="http://www.w3.org/2000/svg" width="960" height="640" viewBox="0 0 960 640">
  <defs>
    <linearGradient id="g" x1="0" y1="0" x2="1" y2="1"><stop offset="0" stop-color="#07131f"/><stop offset=".45" stop-color="#0d9488"/><stop offset="1" stop-color="#f97316"/></linearGradient>
    <radialGradient id="r" cx="50%" cy="38%" r="65%"><stop offset="0" stop-color="#fde68a" stop-opacity=".55"/><stop offset=".42" stop-color="#fde68a" stop-opacity=".16"/><stop offset="1" stop-color="#07131f" stop-opacity="0"/></radialGradient>
    <filter id="soft"><feGaussianBlur stdDeviation="16"/></filter>
    <pattern id="grain" width="64" height="64" patternUnits="userSpaceOnUse"><path d="M0 31 Q16 20 32 31 T64 31" fill="none" stroke="#fff" stroke-opacity=".055" stroke-width="2"/><circle cx="12" cy="15" r="1.4" fill="#fff" fill-opacity=".08"/><circle cx="47" cy="45" r="1.1" fill="#fff" fill-opacity=".07"/></pattern>
  </defs>
  <rect width="960" height="640" rx="34" fill="url(#g)"/>
  <rect width="960" height="640" rx="34" fill="url(#r)"/>
  <path d="M-70 420 C150 300 260 560 510 410 C710 290 820 420 1030 310 L1030 720 L-70 720 Z" fill="#fff" fill-opacity=".08"/>
  <path d="M-40 470 C170 350 270 615 520 455 C705 338 825 488 1010 390 L1010 720 L-40 720 Z" fill="#000" fill-opacity=".13"/>
  <g filter="url(#soft)" opacity=".72"><circle cx="160" cy="120" r="85" fill="#fde68a" opacity=".55"/><circle cx="780" cy="115" r="120" fill="#ffffff" opacity=".12"/><circle cx="690" cy="510" r="140" fill="#0d9488" opacity=".20"/></g>
  <rect width="960" height="640" rx="34" fill="url(#grain)"/>
  <g opacity=".7" fill="none" stroke="#fff" stroke-opacity=".13"><path d="M80 220 Q260 150 430 230 T880 210"/><path d="M40 285 Q280 210 500 296 T910 270"/><path d="M100 355 Q320 300 540 355 T880 340"/></g>
  <text x="54" y="88" fill="#fff7dd" font-family="Arial, sans-serif" font-size="38" font-weight="900" opacity=".92">BOBBER WAKE</text>
</svg>