<svg xmlns="http://www.w3.org/2000/svg" viewBox="0 0 1200 760" role="img" aria-label="FISH TRACK">
<defs>
  <linearGradient id="g" x1="0" x2="1" y1="0" y2="1"><stop stop-color="#04111f"/><stop offset=".54" stop-color="#075985"/><stop offset="1" stop-color="#34d399"/></linearGradient>
  <radialGradient id="r" cx="50%" cy="35%" r="65%"><stop stop-color="#fff7dd" stop-opacity=".22"/><stop offset=".45" stop-color="#67e8f9" stop-opacity=".12"/><stop offset="1" stop-color="#020617" stop-opacity="0"/></radialGradient>
  <filter id="soft"><feGaussianBlur stdDeviation="7"/></filter>
  <pattern id="grain" width="70" height="70" patternUnits="userSpaceOnUse"><circle cx="8" cy="12" r="1.2" fill="#fff" opacity=".12"/><circle cx="52" cy="38" r="1" fill="#fff" opacity=".09"/><path d="M0 66 C 20 48, 42 48, 70 66" fill="none" stroke="#fff" stroke-opacity=".06" stroke-width="2"/></pattern>
</defs>
<rect width="1200" height="760" fill="url(#g)"/>
<rect width="1200" height="760" fill="url(#grain)" opacity=".88"/>
<ellipse cx="600" cy="250" rx="430" ry="210" fill="url(#r)"/>
<path d="M-30 555 C 140 470, 240 620, 420 535 S 735 505, 910 565 S 1120 600, 1240 505 L1240 790 L-30 790Z" fill="#fff7dd" opacity=".13"/>
<path d="M90 150 C 230 50, 345 110, 430 190 C 550 305, 710 300, 855 185 C 950 110, 1055 125, 1160 205" fill="none" stroke="#fff7dd" stroke-width="3" stroke-opacity=".16"/>
<g opacity=".25" filter="url(#soft)"><circle cx="245" cy="230" r="56" fill="#f5c76b"/><circle cx="920" cy="320" r="76" fill="#a78bfa"/><circle cx="740" cy="160" r="42" fill="#34d399"/></g>
<text x="70" y="690" fill="#fff7dd" opacity=".28" font-family="Arial, sans-serif" font-size="54" font-weight="900">FISH TRACK</text>
</svg>