<svg xmlns="http://www.w3.org/2000/svg" viewBox="0 0 1200 760" preserveAspectRatio="none">
<defs>
<linearGradient id="g" x1="0" y1="0" x2="1" y2="1"><stop stop-color="#0c4a6e"/><stop offset=".55" stop-color="#6366f1"/><stop offset="1" stop-color="#020617"/></linearGradient>
<radialGradient id="r" cx="70%" cy="24%" r="55%"><stop stop-color="#fb923c" stop-opacity=".58"/><stop offset=".35" stop-color="#fb923c" stop-opacity=".16"/><stop offset="1" stop-color="#0c4a6e" stop-opacity="0"/></radialGradient>
<filter id="soft"><feGaussianBlur stdDeviation="18"/></filter>
<pattern id="grain" width="36" height="36" patternUnits="userSpaceOnUse"><circle cx="6" cy="8" r="1" fill="#fff" opacity=".08"/><circle cx="28" cy="16" r="1.2" fill="#fff" opacity=".05"/><path d="M0 34 Q18 26 36 34" fill="none" stroke="#fff" stroke-opacity=".05"/></pattern>
</defs>
<rect width="1200" height="760" fill="url(#g)"/>
<rect width="1200" height="760" fill="url(#grain)" opacity=".8"/>
<ellipse cx="790" cy="210" rx="430" ry="220" fill="url(#r)"/>
<path d="M-40 540 C160 450 280 600 470 500 C690 390 780 600 980 470 C1090 400 1190 420 1240 450 L1240 780 L-40 780 Z" fill="#fff" opacity=".10"/>
<path d="M-50 610 C160 520 310 650 520 555 C740 455 840 650 1050 540 C1160 480 1220 515 1260 540 L1260 790 L-50 790 Z" fill="#000" opacity=".18"/>
<g opacity=".45" filter="url(#soft)"><circle cx="210" cy="210" r="120" fill="#fb923c" opacity=".22"/><circle cx="950" cy="350" r="170" fill="#38bdf8" opacity=".16"/></g>
<g opacity=".65"><path d="M130 164 C300 92 470 130 650 80 C790 42 1000 58 1130 118" fill="none" stroke="#fb923c" stroke-width="3" stroke-opacity=".28"/><path d="M80 270 C270 210 445 270 650 196 C820 135 1010 155 1150 220" fill="none" stroke="#fff" stroke-width="2" stroke-opacity=".12"/><path d="M96 372 C270 320 430 385 610 315 C790 245 1000 270 1140 330" fill="none" stroke="#bae6fd" stroke-width="2" stroke-opacity=".13"/></g>
<g transform="translate(72 70)"><rect x="0" y="0" width="360" height="86" rx="30" fill="#020617" opacity=".33" stroke="#fff" stroke-opacity=".15"/><text x="34" y="36" font-family="Arial, sans-serif" font-size="22" font-weight="900" fill="#fff7cd">AQUA FANTASIA</text><text x="34" y="64" font-family="Arial, sans-serif" font-size="15" font-weight="700" fill="#bae6fd" opacity=".82">Action Button</text></g>
</svg>