<svg xmlns="http://www.w3.org/2000/svg" viewBox="0 0 900 560"><defs><linearGradient id="g" x1="0" y1="0" x2="1" y2="1"><stop stop-color="#0b1f3d"/><stop offset=".42" stop-color="#0e7490"/><stop offset=".72" stop-color="#7c2d12"/><stop offset="1" stop-color="#3b0764"/></linearGradient><radialGradient id="r" cx="30%" cy="18%" r="72%"><stop stop-color="#fef3c7" stop-opacity=".28"/><stop offset=".48" stop-color="#22d3ee" stop-opacity=".11"/><stop offset="1" stop-color="#020617" stop-opacity="0"/></radialGradient><filter id="blur"><feGaussianBlur stdDeviation="18"/></filter></defs><rect width="900" height="560" rx="64" fill="url(#g)"/><rect width="900" height="560" rx="64" fill="url(#r)"/><path d="M52 430C180 350 240 460 352 386c119-78 169-181 318-126 76 28 118 11 180-40" fill="none" stroke="#fcd34d" stroke-width="10" stroke-opacity=".22"/><path d="M0 135c120-40 198-26 300 18 160 70 260-68 430-8 82 29 128 19 170-5v420H0z" fill="#020617" opacity=".25"/><g fill="none" stroke="#fff7cd" stroke-opacity=".16"><path d="M76 72h748M76 488h748" stroke-width="2"/><circle cx="148" cy="132" r="72"/><circle cx="735" cy="435" r="96"/></g><g filter="url(#blur)" opacity=".52"><circle cx="190" cy="92" r="80" fill="#22d3ee"/><circle cx="740" cy="152" r="100" fill="#f59e0b"/><circle cx="560" cy="430" r="110" fill="#a855f7"/></g></svg>