<svg xmlns="http://www.w3.org/2000/svg" viewBox="0 0 900 1300" preserveAspectRatio="xMidYMid slice">
  <defs>
    <linearGradient id="g" x1="0" x2="1" y1="0" y2="1"><stop stop-color="#0f172a"/><stop offset=".52" stop-color="#164e63"/><stop offset="1" stop-color="#1e1b4b"/></linearGradient>
    <radialGradient id="r" cx="50%" cy="35%" r="70%"><stop stop-color="#ffffff" stop-opacity=".32"/><stop offset=".55" stop-color="#7dd3fc" stop-opacity=".12"/><stop offset="1" stop-color="#020617" stop-opacity="0"/></radialGradient>
    <filter id="soft"><feGaussianBlur stdDeviation="12"/></filter>
  </defs>
  <rect width="900" height="1300" fill="url(#g)"/>
  <rect width="900" height="1300" fill="url(#r)"/>
  <path d="M-60 840 C150 720 265 930 465 780 C655 635 810 760 960 650 L960 1300 L-60 1300Z" fill="#03172c" opacity=".55"/>
  <path d="M-40 560 C180 480 260 650 470 520 C650 410 770 490 940 390" fill="none" stroke="#d9f99d" stroke-opacity=".20" stroke-width="10"/>
  <path d="M110 165 C190 120 270 134 342 176 C257 194 186 230 118 292 C95 240 82 194 110 165Z" fill="#fcd34d" opacity=".28" filter="url(#soft)"/>
  <g opacity=".28" stroke="#fff" stroke-width="2">
    <path d="M80 980 C160 940 220 1035 310 980 S470 930 570 980 S720 1020 830 940" fill="none"/>
    <path d="M80 1045 C200 990 260 1100 400 1045 S640 1000 830 1070" fill="none"/>
  </g>
  <text x="50" y="92" font-family="Arial, sans-serif" font-weight="900" font-size="34" fill="#ecfeff" opacity=".85">ADAPTIVE PERFORMANCE 4.3</text>
</svg>