<svg xmlns="http://www.w3.org/2000/svg" viewBox="0 0 1200 800" preserveAspectRatio="none">
<defs>
<linearGradient id="g" x1="0" y1="0" x2="1" y2="1"><stop offset="0" stop-color="#0f766e" stop-opacity=".75"/><stop offset=".55" stop-color="#f7d071" stop-opacity=".62"/><stop offset="1" stop-color="#a78bfa" stop-opacity=".42"/></linearGradient>
<radialGradient id="r" cx="50%" cy="45%" r="62%"><stop offset="0" stop-color="#f7d071" stop-opacity=".42"/><stop offset=".48" stop-color="#0f766e" stop-opacity=".15"/><stop offset="1" stop-color="#020617" stop-opacity="0"/></radialGradient>
<filter id="blur"><feGaussianBlur stdDeviation="7"/></filter>
</defs><rect width="100%" height="100%" fill="#061526"/>
<rect width="1200" height="800" fill="url(#r)"/><path d="M0 590 C170 530 310 650 505 575 S910 520 1200 590 V800 H0Z" fill="#061526" opacity=".52"/><path d="M0 290 C220 250 360 320 560 285 S915 230 1200 285" fill="none" stroke="url(#g)" stroke-width="4" opacity=".28"/><g opacity=".22" stroke="#fff7dd" stroke-width="2"><path d="M120 0 C200 220 170 420 95 800"/><path d="M330 0 C410 230 390 450 310 800"/><path d="M820 0 C760 250 800 480 910 800"/><path d="M1060 0 C990 260 1020 510 1135 800"/></g><circle cx="880" cy="160" r="145" fill="#f7d071" opacity=".09" filter="url(#blur)"/></svg>