<svg xmlns="http://www.w3.org/2000/svg" viewBox="0 0 220 220">
<defs>
<radialGradient id="bg" cx="50%" cy="44%" r="58%"><stop offset="0" stop-color="#fff7dd"/><stop offset=".42" stop-color="#f7d071"/><stop offset=".72" stop-color="#f97365"/><stop offset="1" stop-color="#5b1b2a"/></radialGradient>
<linearGradient id="body" x1="0" y1="0" x2="1" y2="1"><stop stop-color="#fffdf2"/><stop offset=".45" stop-color="#fff0bc"/><stop offset=".47" stop-color="#ef4444"/><stop offset="1" stop-color="#7f1d1d"/></linearGradient>
<radialGradient id="shine" cx="38%" cy="28%" r="44%"><stop offset="0" stop-color="#fff" stop-opacity=".95"/><stop offset=".42" stop-color="#fff" stop-opacity=".24"/><stop offset="1" stop-color="#fff" stop-opacity="0"/></radialGradient>
<filter id="soft" x="-30%" y="-30%" width="160%" height="160%"><feGaussianBlur stdDeviation="2.6"/><feColorMatrix values="1 0 0 0 0  0 1 0 0 0.15  0 0 1 0 0.45  0 0 0 .72 0"/></filter>
</defs>
<circle cx="110" cy="112" r="92" fill="#0ea5b7" opacity=".10"/>
<circle cx="110" cy="112" r="72" fill="url(#bg)" opacity=".22" filter="url(#soft)"/>
<path d="M33 139c26 14 52 19 77 17 26-2 52-10 77-23" fill="none" stroke="#9ffcff" stroke-width="6" stroke-linecap="round" opacity=".35"/>
<path d="M49 151c36 18 86 19 126-5" fill="none" stroke="#fff7dd" stroke-width="3" stroke-linecap="round" opacity=".34"/>
<g transform="translate(110 104)">
<ellipse cx="0" cy="48" rx="36" ry="12" fill="#020617" opacity=".34"/>
<path d="M0-80c30 0 54 27 54 60 0 36-24 86-54 86S-54 16-54-20c0-33 24-60 54-60Z" fill="url(#body)" stroke="#fff7dd" stroke-width="5"/>
<path d="M-51-20c16 10 33 14 51 14 19 0 35-5 51-14" fill="none" stroke="#0f172a" stroke-width="5" opacity=".34"/>
<path d="M-46-22c15 9 30 13 46 13 17 0 32-4 46-13" fill="none" stroke="#fff7dd" stroke-width="3" opacity=".68"/>
<circle cx="0" cy="-70" r="12" fill="#facc15" stroke="#fff7dd" stroke-width="4"/>
<path d="M0-102v22" stroke="#fff7dd" stroke-width="6" stroke-linecap="round"/>
<ellipse cx="-19" cy="-34" rx="18" ry="26" fill="url(#shine)" transform="rotate(12 -19 -34)"/>
<path d="M18 33c13-14 19-33 18-52" fill="none" stroke="#fff" stroke-opacity=".34" stroke-width="4" stroke-linecap="round"/>
</g>
</svg>
