<svg xmlns="http://www.w3.org/2000/svg" viewBox="0 0 960 540">
  <defs>
    <linearGradient id="bg" x1="0" y1="0" x2="1" y2="1"><stop offset="0" stop-color="#061526"/><stop offset=".52" stop-color="#0e7490"/><stop offset="1" stop-color="#020617"/></linearGradient>
    <radialGradient id="glow" cx="34%" cy="22%" r="70%"><stop offset="0" stop-color="#f7d071" stop-opacity=".55"/><stop offset=".38" stop-color="#67e8f9" stop-opacity=".18"/><stop offset="1" stop-color="#020617" stop-opacity="0"/></radialGradient>
    <filter id="soft"><feGaussianBlur stdDeviation="9"/></filter>
    <pattern id="grain" width="40" height="40" patternUnits="userSpaceOnUse"><path d="M0 39 L40 0" stroke="#fff" stroke-opacity=".035"/><circle cx="6" cy="7" r="1.2" fill="#fff" fill-opacity=".04"/><circle cx="30" cy="18" r="1" fill="#fff" fill-opacity=".035"/></pattern>
  </defs>
  <rect width="960" height="540" rx="38" fill="url(#bg)"/>
  <rect width="960" height="540" rx="38" fill="url(#glow)"/>
  <rect width="960" height="540" rx="38" fill="url(#grain)" opacity=".85"/>
  <g opacity=".52" filter="url(#soft)">
    <path d="M92 375 C240 270 316 470 492 324 C650 190 716 348 876 230" fill="none" stroke="#67e8f9" stroke-width="18" stroke-linecap="round"/>
    <path d="M66 420 C250 330 320 510 552 374 C740 260 748 420 908 314" fill="none" stroke="#f7d071" stroke-width="10" stroke-linecap="round" opacity=".56"/>
  </g>
  <g opacity=".86">
    <ellipse cx="760" cy="120" rx="112" ry="42" fill="#fff7dd" opacity=".08"/>
    <ellipse cx="265" cy="166" rx="160" ry="54" fill="#67e8f9" opacity=".10"/>
    <circle cx="190" cy="110" r="44" fill="#f7d071" opacity=".16"/>
    <circle cx="826" cy="414" r="70" fill="#b79cff" opacity=".12"/>
  </g>
  <g fill="none" stroke="#fff7dd" stroke-opacity=".17">
    <rect x="34" y="34" width="892" height="472" rx="32"/>
    <rect x="56" y="56" width="848" height="428" rx="24" stroke-opacity=".09"/>
  </g>
  <text x="70" y="110" fill="#fff7dd" font-size="36" font-family="system-ui, sans-serif" font-weight="900">Firebase Bridge</text>
  <text x="72" y="148" fill="#cffafe" font-size="18" font-family="system-ui, sans-serif" font-weight="700" opacity=".82">Aqua Fantasia v4.6 · auth + cloud save</text>
</svg>