<svg xmlns="http://www.w3.org/2000/svg" viewBox="0 0 1200 700" preserveAspectRatio="none">
<defs><linearGradient id="g" x1="0" y1="0" x2="1" y2="1"><stop offset="0" stop-color="#020617"/><stop offset="0.55" stop-color="#22d3ee"/><stop offset="1" stop-color="#020617"/></linearGradient><radialGradient id="r" cx="50%" cy="35%" r="65%"><stop offset="0" stop-color="#f472b6" stop-opacity=".34"/><stop offset=".45" stop-color="#22d3ee" stop-opacity=".16"/><stop offset="1" stop-color="#020617" stop-opacity="0"/></radialGradient><filter id="blur"><feGaussianBlur stdDeviation="14"/></filter></defs>
<rect width="1200" height="700" fill="url(#g)"/><rect width="1200" height="700" fill="url(#r)"/><g opacity=".34" filter="url(#blur)"><circle cx="444" cy="542" r="34" fill="#f472b6" opacity="0.08"/><circle cx="529" cy="382" r="24" fill="#22d3ee" opacity="0.15"/><circle cx="962" cy="300" r="39" fill="#ffffff" opacity="0.16"/><circle cx="52" cy="412" r="24" fill="#f472b6" opacity="0.17"/><circle cx="766" cy="157" r="39" fill="#ffffff" opacity="0.21"/><circle cx="273" cy="207" r="15" fill="#f472b6" opacity="0.22"/><circle cx="160" cy="275" r="54" fill="#f472b6" opacity="0.19"/><circle cx="980" cy="573" r="45" fill="#22d3ee" opacity="0.10"/><circle cx="123" cy="280" r="38" fill="#f472b6" opacity="0.08"/><circle cx="436" cy="188" r="23" fill="#22d3ee" opacity="0.13"/><circle cx="963" cy="471" r="49" fill="#f472b6" opacity="0.19"/><circle cx="223" cy="225" r="43" fill="#f472b6" opacity="0.17"/><circle cx="1141" cy="131" r="14" fill="#22d3ee" opacity="0.23"/><circle cx="1100" cy="373" r="28" fill="#22d3ee" opacity="0.18"/><circle cx="512" cy="299" r="54" fill="#22d3ee" opacity="0.18"/><circle cx="59" cy="202" r="37" fill="#22d3ee" opacity="0.18"/><circle cx="362" cy="377" r="18" fill="#22d3ee" opacity="0.08"/><circle cx="565" cy="493" r="37" fill="#22d3ee" opacity="0.19"/><circle cx="676" cy="449" r="28" fill="#ffffff" opacity="0.09"/><circle cx="495" cy="223" r="53" fill="#ffffff" opacity="0.20"/><circle cx="441" cy="558" r="48" fill="#22d3ee" opacity="0.11"/><circle cx="732" cy="459" r="47" fill="#22d3ee" opacity="0.14"/><circle cx="553" cy="651" r="20" fill="#22d3ee" opacity="0.16"/><circle cx="240" cy="190" r="34" fill="#f472b6" opacity="0.08"/><circle cx="534" cy="642" r="15" fill="#22d3ee" opacity="0.12"/><circle cx="859" cy="232" r="42" fill="#ffffff" opacity="0.11"/><circle cx="436" cy="510" r="35" fill="#ffffff" opacity="0.13"/><circle cx="1068" cy="219" r="37" fill="#f472b6" opacity="0.23"/><circle cx="50" cy="403" r="53" fill="#f472b6" opacity="0.11"/><circle cx="1102" cy="573" r="17" fill="#ffffff" opacity="0.19"/><circle cx="311" cy="265" r="43" fill="#f472b6" opacity="0.22"/><circle cx="426" cy="283" r="43" fill="#22d3ee" opacity="0.21"/><circle cx="664" cy="307" r="19" fill="#f472b6" opacity="0.10"/><circle cx="701" cy="456" r="38" fill="#22d3ee" opacity="0.21"/><circle cx="381" cy="454" r="48" fill="#22d3ee" opacity="0.23"/></g><g opacity=".32" stroke="#f472b6" stroke-width="2" fill="none"><path d="M -100 420.0 C 180 390.0, 420 520.0, 1300 440.0"/><path d="M -10 453.7 C 250 362.4, 475 560.9, 1300 417.0"/><path d="M 80 456.4 C 320 305.0, 530 485.9, 1300 369.2"/><path d="M 170 425.6 C 390 270.6, 585 507.4, 1300 340.5"/><path d="M 260 389.7 C 460 290.8, 640 564.5, 1300 357.3"/><path d="M 350 381.6 C 530 347.0, 695 495.5, 1300 404.2"/><path d="M 440 408.8 C 600 387.6, 750 495.9, 1300 438.0"/><path d="M 530 446.3 C 670 375.2, 805 564.6, 1300 427.7"/><path d="M 620 459.6 C 740 321.3, 860 507.0, 1300 382.7"/><path d="M 710 436.5 C 810 275.3, 915 486.2, 1300 344.4"/></g><g opacity=".16" fill="#fff7dd"><text x="58" y="640" font-family="Arial, sans-serif" font-size="46" font-weight="900">AQUA FANTASIA · Particles</text></g></svg>