<svg xmlns="http://www.w3.org/2000/svg" viewBox="0 0 1200 700" preserveAspectRatio="none">
<defs><linearGradient id="g" x1="0" y1="0" x2="1" y2="1"><stop offset="0" stop-color="#083344"/><stop offset="0.55" stop-color="#0e7490"/><stop offset="1" stop-color="#083344"/></linearGradient><radialGradient id="r" cx="50%" cy="35%" r="65%"><stop offset="0" stop-color="#a7f3d0" stop-opacity=".34"/><stop offset=".45" stop-color="#0e7490" stop-opacity=".16"/><stop offset="1" stop-color="#083344" stop-opacity="0"/></radialGradient><filter id="blur"><feGaussianBlur stdDeviation="14"/></filter></defs>
<rect width="1200" height="700" fill="url(#g)"/><rect width="1200" height="700" fill="url(#r)"/><g opacity=".34" filter="url(#blur)"><circle cx="562" cy="112" r="47" fill="#a7f3d0" opacity="0.24"/><circle cx="834" cy="474" r="56" fill="#a7f3d0" opacity="0.21"/><circle cx="354" cy="604" r="54" fill="#ffffff" opacity="0.24"/><circle cx="605" cy="61" r="51" fill="#ffffff" opacity="0.19"/><circle cx="800" cy="52" r="40" fill="#ffffff" opacity="0.12"/><circle cx="289" cy="548" r="32" fill="#ffffff" opacity="0.09"/><circle cx="300" cy="489" r="53" fill="#a7f3d0" opacity="0.15"/><circle cx="1102" cy="165" r="56" fill="#a7f3d0" opacity="0.22"/><circle cx="215" cy="66" r="38" fill="#0e7490" opacity="0.09"/><circle cx="760" cy="318" r="22" fill="#a7f3d0" opacity="0.22"/><circle cx="867" cy="226" r="51" fill="#ffffff" opacity="0.23"/><circle cx="941" cy="213" r="29" fill="#a7f3d0" opacity="0.22"/><circle cx="1131" cy="140" r="44" fill="#ffffff" opacity="0.12"/><circle cx="286" cy="655" r="46" fill="#a7f3d0" opacity="0.19"/><circle cx="519" cy="554" r="39" fill="#a7f3d0" opacity="0.13"/><circle cx="575" cy="253" r="17" fill="#ffffff" opacity="0.18"/><circle cx="139" cy="464" r="42" fill="#ffffff" opacity="0.14"/><circle cx="321" cy="652" r="18" fill="#0e7490" opacity="0.08"/><circle cx="826" cy="610" r="16" fill="#a7f3d0" opacity="0.20"/><circle cx="508" cy="272" r="50" fill="#0e7490" opacity="0.19"/><circle cx="988" cy="639" r="52" fill="#a7f3d0" opacity="0.20"/><circle cx="984" cy="210" r="31" fill="#0e7490" opacity="0.22"/><circle cx="717" cy="331" r="18" fill="#ffffff" opacity="0.15"/><circle cx="659" cy="81" r="39" fill="#a7f3d0" opacity="0.15"/><circle cx="376" cy="470" r="56" fill="#a7f3d0" opacity="0.10"/><circle cx="1112" cy="202" r="30" fill="#ffffff" opacity="0.16"/><circle cx="404" cy="649" r="18" fill="#0e7490" opacity="0.12"/><circle cx="371" cy="444" r="48" fill="#a7f3d0" opacity="0.12"/><circle cx="40" cy="391" r="23" fill="#a7f3d0" opacity="0.17"/><circle cx="165" cy="545" r="36" fill="#0e7490" opacity="0.15"/><circle cx="339" cy="446" r="56" fill="#ffffff" opacity="0.22"/><circle cx="954" cy="523" r="37" fill="#ffffff" opacity="0.23"/><circle cx="1146" cy="517" r="17" fill="#a7f3d0" opacity="0.11"/><circle cx="378" cy="49" r="19" fill="#a7f3d0" opacity="0.11"/><circle cx="1096" cy="53" r="20" fill="#0e7490" opacity="0.15"/></g><g opacity=".32" stroke="#a7f3d0" stroke-width="2" fill="none"><path d="M -100 420.0 C 180 390.0, 420 520.0, 1300 440.0"/><path d="M -10 453.7 C 250 362.4, 475 560.9, 1300 417.0"/><path d="M 80 456.4 C 320 305.0, 530 485.9, 1300 369.2"/><path d="M 170 425.6 C 390 270.6, 585 507.4, 1300 340.5"/><path d="M 260 389.7 C 460 290.8, 640 564.5, 1300 357.3"/><path d="M 350 381.6 C 530 347.0, 695 495.5, 1300 404.2"/><path d="M 440 408.8 C 600 387.6, 750 495.9, 1300 438.0"/><path d="M 530 446.3 C 670 375.2, 805 564.6, 1300 427.7"/><path d="M 620 459.6 C 740 321.3, 860 507.0, 1300 382.7"/><path d="M 710 436.5 C 810 275.3, 915 486.2, 1300 344.4"/></g><g opacity=".16" fill="#fff7dd"><text x="58" y="640" font-family="Arial, sans-serif" font-size="46" font-weight="900">AQUA FANTASIA · Water Ribbon</text></g></svg>