<svg xmlns="http://www.w3.org/2000/svg" viewBox="0 0 1200 700" preserveAspectRatio="none">
<defs><linearGradient id="g" x1="0" y1="0" x2="1" y2="1"><stop offset="0" stop-color="#082f49"/><stop offset="0.55" stop-color="#38bdf8"/><stop offset="1" stop-color="#082f49"/></linearGradient><radialGradient id="r" cx="50%" cy="35%" r="65%"><stop offset="0" stop-color="#fff7dd" stop-opacity=".34"/><stop offset=".45" stop-color="#38bdf8" stop-opacity=".16"/><stop offset="1" stop-color="#082f49" stop-opacity="0"/></radialGradient><filter id="blur"><feGaussianBlur stdDeviation="14"/></filter></defs>
<rect width="1200" height="700" fill="url(#g)"/><rect width="1200" height="700" fill="url(#r)"/><g opacity=".34" filter="url(#blur)"><circle cx="449" cy="516" r="33" fill="#fff7dd" opacity="0.13"/><circle cx="42" cy="538" r="23" fill="#ffffff" opacity="0.18"/><circle cx="512" cy="336" r="20" fill="#38bdf8" opacity="0.22"/><circle cx="731" cy="430" r="15" fill="#fff7dd" opacity="0.22"/><circle cx="483" cy="405" r="22" fill="#38bdf8" opacity="0.13"/><circle cx="948" cy="149" r="23" fill="#fff7dd" opacity="0.23"/><circle cx="356" cy="607" r="51" fill="#ffffff" opacity="0.19"/><circle cx="947" cy="635" r="51" fill="#fff7dd" opacity="0.10"/><circle cx="173" cy="473" r="21" fill="#ffffff" opacity="0.09"/><circle cx="498" cy="403" r="36" fill="#38bdf8" opacity="0.12"/><circle cx="599" cy="83" r="21" fill="#38bdf8" opacity="0.14"/><circle cx="591" cy="187" r="21" fill="#ffffff" opacity="0.14"/><circle cx="1041" cy="637" r="42" fill="#fff7dd" opacity="0.19"/><circle cx="429" cy="608" r="32" fill="#38bdf8" opacity="0.15"/><circle cx="1075" cy="510" r="38" fill="#ffffff" opacity="0.18"/><circle cx="740" cy="209" r="48" fill="#38bdf8" opacity="0.20"/><circle cx="381" cy="433" r="47" fill="#38bdf8" opacity="0.12"/><circle cx="626" cy="639" r="42" fill="#ffffff" opacity="0.10"/><circle cx="496" cy="223" r="50" fill="#38bdf8" opacity="0.14"/><circle cx="45" cy="643" r="42" fill="#38bdf8" opacity="0.15"/><circle cx="590" cy="477" r="44" fill="#ffffff" opacity="0.11"/><circle cx="990" cy="271" r="20" fill="#38bdf8" opacity="0.17"/><circle cx="993" cy="546" r="43" fill="#ffffff" opacity="0.10"/><circle cx="493" cy="480" r="18" fill="#38bdf8" opacity="0.21"/><circle cx="437" cy="648" r="27" fill="#ffffff" opacity="0.10"/><circle cx="960" cy="476" r="27" fill="#ffffff" opacity="0.24"/><circle cx="131" cy="668" r="26" fill="#ffffff" opacity="0.14"/><circle cx="209" cy="474" r="21" fill="#ffffff" opacity="0.15"/><circle cx="134" cy="603" r="39" fill="#38bdf8" opacity="0.21"/><circle cx="467" cy="182" r="25" fill="#38bdf8" opacity="0.15"/><circle cx="180" cy="538" r="41" fill="#38bdf8" opacity="0.16"/><circle cx="1128" cy="618" r="43" fill="#ffffff" opacity="0.12"/><circle cx="518" cy="294" r="14" fill="#38bdf8" opacity="0.19"/><circle cx="282" cy="61" r="45" fill="#38bdf8" opacity="0.23"/><circle cx="1004" cy="550" r="44" fill="#fff7dd" opacity="0.24"/></g><g opacity=".32" stroke="#fff7dd" stroke-width="2" fill="none"><path d="M -100 420.0 C 180 390.0, 420 520.0, 1300 440.0"/><path d="M -10 453.7 C 250 362.4, 475 560.9, 1300 417.0"/><path d="M 80 456.4 C 320 305.0, 530 485.9, 1300 369.2"/><path d="M 170 425.6 C 390 270.6, 585 507.4, 1300 340.5"/><path d="M 260 389.7 C 460 290.8, 640 564.5, 1300 357.3"/><path d="M 350 381.6 C 530 347.0, 695 495.5, 1300 404.2"/><path d="M 440 408.8 C 600 387.6, 750 495.9, 1300 438.0"/><path d="M 530 446.3 C 670 375.2, 805 564.6, 1300 427.7"/><path d="M 620 459.6 C 740 321.3, 860 507.0, 1300 382.7"/><path d="M 710 436.5 C 810 275.3, 915 486.2, 1300 344.4"/></g><g opacity=".16" fill="#fff7dd"><text x="58" y="640" font-family="Arial, sans-serif" font-size="46" font-weight="900">AQUA FANTASIA · Line Arc</text></g></svg>