<svg xmlns="http://www.w3.org/2000/svg" viewBox="0 0 1200 700" preserveAspectRatio="none">
<defs><linearGradient id="g" x1="0" y1="0" x2="1" y2="1"><stop offset="0" stop-color="#064e3b"/><stop offset="0.55" stop-color="#10b981"/><stop offset="1" stop-color="#064e3b"/></linearGradient><radialGradient id="r" cx="50%" cy="35%" r="65%"><stop offset="0" stop-color="#fef3c7" stop-opacity=".34"/><stop offset=".45" stop-color="#10b981" stop-opacity=".16"/><stop offset="1" stop-color="#064e3b" stop-opacity="0"/></radialGradient><filter id="blur"><feGaussianBlur stdDeviation="14"/></filter></defs>
<rect width="1200" height="700" fill="url(#g)"/><rect width="1200" height="700" fill="url(#r)"/><g opacity=".34" filter="url(#blur)"><circle cx="788" cy="356" r="23" fill="#fef3c7" opacity="0.12"/><circle cx="441" cy="196" r="20" fill="#10b981" opacity="0.09"/><circle cx="822" cy="583" r="45" fill="#10b981" opacity="0.09"/><circle cx="982" cy="115" r="36" fill="#fef3c7" opacity="0.21"/><circle cx="1027" cy="434" r="44" fill="#fef3c7" opacity="0.11"/><circle cx="802" cy="544" r="27" fill="#ffffff" opacity="0.20"/><circle cx="180" cy="586" r="51" fill="#ffffff" opacity="0.19"/><circle cx="1115" cy="486" r="44" fill="#fef3c7" opacity="0.09"/><circle cx="1060" cy="38" r="45" fill="#fef3c7" opacity="0.24"/><circle cx="751" cy="403" r="50" fill="#10b981" opacity="0.23"/><circle cx="738" cy="61" r="19" fill="#ffffff" opacity="0.23"/><circle cx="541" cy="453" r="44" fill="#fef3c7" opacity="0.16"/><circle cx="990" cy="600" r="34" fill="#10b981" opacity="0.15"/><circle cx="984" cy="525" r="43" fill="#10b981" opacity="0.23"/><circle cx="1044" cy="485" r="55" fill="#10b981" opacity="0.22"/><circle cx="187" cy="430" r="38" fill="#fef3c7" opacity="0.13"/><circle cx="874" cy="605" r="56" fill="#10b981" opacity="0.15"/><circle cx="1077" cy="80" r="54" fill="#fef3c7" opacity="0.10"/><circle cx="939" cy="329" r="26" fill="#10b981" opacity="0.15"/><circle cx="315" cy="243" r="51" fill="#10b981" opacity="0.10"/><circle cx="1134" cy="590" r="14" fill="#fef3c7" opacity="0.15"/><circle cx="384" cy="669" r="45" fill="#ffffff" opacity="0.11"/><circle cx="951" cy="637" r="52" fill="#10b981" opacity="0.16"/><circle cx="470" cy="654" r="40" fill="#10b981" opacity="0.13"/><circle cx="143" cy="226" r="24" fill="#10b981" opacity="0.12"/><circle cx="132" cy="473" r="49" fill="#10b981" opacity="0.19"/><circle cx="493" cy="528" r="27" fill="#ffffff" opacity="0.08"/><circle cx="500" cy="303" r="18" fill="#fef3c7" opacity="0.13"/><circle cx="602" cy="282" r="38" fill="#fef3c7" opacity="0.08"/><circle cx="40" cy="44" r="55" fill="#fef3c7" opacity="0.11"/><circle cx="1126" cy="370" r="41" fill="#fef3c7" opacity="0.12"/><circle cx="886" cy="634" r="56" fill="#fef3c7" opacity="0.13"/><circle cx="101" cy="280" r="23" fill="#fef3c7" opacity="0.11"/><circle cx="198" cy="189" r="28" fill="#ffffff" opacity="0.17"/><circle cx="1090" cy="241" r="42" fill="#10b981" opacity="0.22"/></g><g opacity=".32" stroke="#fef3c7" stroke-width="2" fill="none"><path d="M -100 420.0 C 180 390.0, 420 520.0, 1300 440.0"/><path d="M -10 453.7 C 250 362.4, 475 560.9, 1300 417.0"/><path d="M 80 456.4 C 320 305.0, 530 485.9, 1300 369.2"/><path d="M 170 425.6 C 390 270.6, 585 507.4, 1300 340.5"/><path d="M 260 389.7 C 460 290.8, 640 564.5, 1300 357.3"/><path d="M 350 381.6 C 530 347.0, 695 495.5, 1300 404.2"/><path d="M 440 408.8 C 600 387.6, 750 495.9, 1300 438.0"/><path d="M 530 446.3 C 670 375.2, 805 564.6, 1300 427.7"/><path d="M 620 459.6 C 740 321.3, 860 507.0, 1300 382.7"/><path d="M 710 436.5 C 810 275.3, 915 486.2, 1300 344.4"/></g><g opacity=".16" fill="#fff7dd"><text x="58" y="640" font-family="Arial, sans-serif" font-size="46" font-weight="900">AQUA FANTASIA · Target Zone</text></g></svg>