<svg xmlns="http://www.w3.org/2000/svg" viewBox="0 0 1200 700" preserveAspectRatio="none">
<defs><linearGradient id="g" x1="0" y1="0" x2="1" y2="1"><stop offset="0" stop-color="#042039"/><stop offset="0.55" stop-color="#075985"/><stop offset="1" stop-color="#042039"/></linearGradient><radialGradient id="r" cx="50%" cy="35%" r="65%"><stop offset="0" stop-color="#45e6b5" stop-opacity=".34"/><stop offset=".45" stop-color="#075985" stop-opacity=".16"/><stop offset="1" stop-color="#042039" stop-opacity="0"/></radialGradient><filter id="blur"><feGaussianBlur stdDeviation="14"/></filter></defs>
<rect width="1200" height="700" fill="url(#g)"/><rect width="1200" height="700" fill="url(#r)"/><g opacity=".34" filter="url(#blur)"><circle cx="1030" cy="203" r="23" fill="#075985" opacity="0.09"/><circle cx="1137" cy="248" r="32" fill="#ffffff" opacity="0.10"/><circle cx="785" cy="564" r="43" fill="#45e6b5" opacity="0.21"/><circle cx="150" cy="401" r="40" fill="#ffffff" opacity="0.23"/><circle cx="258" cy="138" r="18" fill="#ffffff" opacity="0.18"/><circle cx="900" cy="199" r="28" fill="#45e6b5" opacity="0.09"/><circle cx="845" cy="368" r="34" fill="#075985" opacity="0.13"/><circle cx="174" cy="86" r="48" fill="#45e6b5" opacity="0.13"/><circle cx="1101" cy="493" r="32" fill="#45e6b5" opacity="0.16"/><circle cx="472" cy="418" r="32" fill="#45e6b5" opacity="0.18"/><circle cx="770" cy="285" r="22" fill="#075985" opacity="0.22"/><circle cx="1004" cy="314" r="24" fill="#45e6b5" opacity="0.23"/><circle cx="74" cy="145" r="43" fill="#45e6b5" opacity="0.13"/><circle cx="171" cy="583" r="30" fill="#ffffff" opacity="0.23"/><circle cx="93" cy="475" r="19" fill="#45e6b5" opacity="0.23"/><circle cx="489" cy="34" r="27" fill="#45e6b5" opacity="0.19"/><circle cx="311" cy="461" r="15" fill="#45e6b5" opacity="0.23"/><circle cx="767" cy="212" r="42" fill="#ffffff" opacity="0.22"/><circle cx="240" cy="417" r="51" fill="#45e6b5" opacity="0.08"/><circle cx="825" cy="273" r="40" fill="#45e6b5" opacity="0.11"/><circle cx="1106" cy="257" r="55" fill="#075985" opacity="0.13"/><circle cx="983" cy="354" r="29" fill="#ffffff" opacity="0.18"/><circle cx="672" cy="75" r="21" fill="#ffffff" opacity="0.20"/><circle cx="250" cy="143" r="25" fill="#ffffff" opacity="0.22"/><circle cx="950" cy="45" r="49" fill="#45e6b5" opacity="0.09"/><circle cx="492" cy="455" r="45" fill="#075985" opacity="0.14"/><circle cx="63" cy="546" r="53" fill="#075985" opacity="0.22"/><circle cx="813" cy="574" r="30" fill="#ffffff" opacity="0.12"/><circle cx="259" cy="564" r="24" fill="#ffffff" opacity="0.21"/><circle cx="576" cy="409" r="38" fill="#45e6b5" opacity="0.09"/><circle cx="593" cy="212" r="14" fill="#45e6b5" opacity="0.20"/><circle cx="567" cy="330" r="52" fill="#075985" opacity="0.23"/><circle cx="129" cy="367" r="26" fill="#075985" opacity="0.21"/><circle cx="269" cy="508" r="45" fill="#45e6b5" opacity="0.23"/><circle cx="870" cy="136" r="56" fill="#45e6b5" opacity="0.09"/></g><g opacity=".32" stroke="#45e6b5" stroke-width="2" fill="none"><path d="M -100 420.0 C 180 390.0, 420 520.0, 1300 440.0"/><path d="M -10 453.7 C 250 362.4, 475 560.9, 1300 417.0"/><path d="M 80 456.4 C 320 305.0, 530 485.9, 1300 369.2"/><path d="M 170 425.6 C 390 270.6, 585 507.4, 1300 340.5"/><path d="M 260 389.7 C 460 290.8, 640 564.5, 1300 357.3"/><path d="M 350 381.6 C 530 347.0, 695 495.5, 1300 404.2"/><path d="M 440 408.8 C 600 387.6, 750 495.9, 1300 438.0"/><path d="M 530 446.3 C 670 375.2, 805 564.6, 1300 427.7"/><path d="M 620 459.6 C 740 321.3, 860 507.0, 1300 382.7"/><path d="M 710 436.5 C 810 275.3, 915 486.2, 1300 344.4"/></g><g opacity=".16" fill="#fff7dd"><text x="58" y="640" font-family="Arial, sans-serif" font-size="46" font-weight="900">AQUA FANTASIA · Pixi Fishing Stage</text></g></svg>