<svg xmlns="http://www.w3.org/2000/svg" viewBox="0 0 1200 700" preserveAspectRatio="none">
<defs><linearGradient id="g" x1="0" y1="0" x2="1" y2="1"><stop offset="0" stop-color="#061426"/><stop offset="0.55" stop-color="#164e63"/><stop offset="1" stop-color="#061426"/></linearGradient><radialGradient id="r" cx="50%" cy="35%" r="65%"><stop offset="0" stop-color="#48d7ff" stop-opacity=".34"/><stop offset=".45" stop-color="#164e63" stop-opacity=".16"/><stop offset="1" stop-color="#061426" stop-opacity="0"/></radialGradient><filter id="blur"><feGaussianBlur stdDeviation="14"/></filter></defs>
<rect width="1200" height="700" fill="url(#g)"/><rect width="1200" height="700" fill="url(#r)"/><g opacity=".34" filter="url(#blur)"><circle cx="96" cy="348" r="43" fill="#ffffff" opacity="0.23"/><circle cx="738" cy="372" r="53" fill="#164e63" opacity="0.14"/><circle cx="1054" cy="617" r="33" fill="#48d7ff" opacity="0.09"/><circle cx="609" cy="486" r="40" fill="#164e63" opacity="0.09"/><circle cx="534" cy="539" r="15" fill="#48d7ff" opacity="0.12"/><circle cx="554" cy="375" r="20" fill="#164e63" opacity="0.15"/><circle cx="109" cy="380" r="14" fill="#48d7ff" opacity="0.10"/><circle cx="664" cy="637" r="50" fill="#164e63" opacity="0.15"/><circle cx="192" cy="317" r="30" fill="#ffffff" opacity="0.08"/><circle cx="1115" cy="669" r="24" fill="#164e63" opacity="0.21"/><circle cx="191" cy="241" r="29" fill="#164e63" opacity="0.14"/><circle cx="668" cy="452" r="56" fill="#ffffff" opacity="0.13"/><circle cx="1154" cy="259" r="22" fill="#ffffff" opacity="0.19"/><circle cx="1079" cy="516" r="52" fill="#164e63" opacity="0.18"/><circle cx="898" cy="613" r="56" fill="#164e63" opacity="0.21"/><circle cx="1103" cy="383" r="39" fill="#48d7ff" opacity="0.13"/><circle cx="1039" cy="601" r="36" fill="#ffffff" opacity="0.20"/><circle cx="894" cy="188" r="41" fill="#ffffff" opacity="0.20"/><circle cx="175" cy="478" r="47" fill="#164e63" opacity="0.20"/><circle cx="698" cy="302" r="29" fill="#ffffff" opacity="0.19"/><circle cx="225" cy="257" r="55" fill="#164e63" opacity="0.15"/><circle cx="348" cy="648" r="38" fill="#48d7ff" opacity="0.11"/><circle cx="812" cy="231" r="48" fill="#164e63" opacity="0.20"/><circle cx="496" cy="176" r="17" fill="#ffffff" opacity="0.13"/><circle cx="1007" cy="324" r="23" fill="#48d7ff" opacity="0.20"/><circle cx="487" cy="203" r="38" fill="#ffffff" opacity="0.12"/><circle cx="314" cy="203" r="25" fill="#164e63" opacity="0.24"/><circle cx="592" cy="391" r="33" fill="#48d7ff" opacity="0.08"/><circle cx="946" cy="384" r="54" fill="#164e63" opacity="0.22"/><circle cx="863" cy="355" r="56" fill="#164e63" opacity="0.15"/><circle cx="680" cy="235" r="19" fill="#164e63" opacity="0.13"/><circle cx="464" cy="533" r="47" fill="#164e63" opacity="0.14"/><circle cx="823" cy="328" r="23" fill="#ffffff" opacity="0.22"/><circle cx="766" cy="578" r="47" fill="#48d7ff" opacity="0.24"/><circle cx="751" cy="354" r="52" fill="#48d7ff" opacity="0.16"/></g><g opacity=".32" stroke="#48d7ff" stroke-width="2" fill="none"><path d="M -100 420.0 C 180 390.0, 420 520.0, 1300 440.0"/><path d="M -10 453.7 C 250 362.4, 475 560.9, 1300 417.0"/><path d="M 80 456.4 C 320 305.0, 530 485.9, 1300 369.2"/><path d="M 170 425.6 C 390 270.6, 585 507.4, 1300 340.5"/><path d="M 260 389.7 C 460 290.8, 640 564.5, 1300 357.3"/><path d="M 350 381.6 C 530 347.0, 695 495.5, 1300 404.2"/><path d="M 440 408.8 C 600 387.6, 750 495.9, 1300 438.0"/><path d="M 530 446.3 C 670 375.2, 805 564.6, 1300 427.7"/><path d="M 620 459.6 C 740 321.3, 860 507.0, 1300 382.7"/><path d="M 710 436.5 C 810 275.3, 915 486.2, 1300 344.4"/></g><g opacity=".16" fill="#fff7dd"><text x="58" y="640" font-family="Arial, sans-serif" font-size="46" font-weight="900">AQUA FANTASIA · Renderer Console</text></g></svg>