<svg xmlns="http://www.w3.org/2000/svg" viewBox="0 0 1200 700" preserveAspectRatio="none">
<defs><linearGradient id="g" x1="0" y1="0" x2="1" y2="1"><stop offset="0" stop-color="#041226"/><stop offset="0.55" stop-color="#123b5c"/><stop offset="1" stop-color="#041226"/></linearGradient><radialGradient id="r" cx="50%" cy="35%" r="65%"><stop offset="0" stop-color="#f7d071" stop-opacity=".34"/><stop offset=".45" stop-color="#123b5c" stop-opacity=".16"/><stop offset="1" stop-color="#041226" stop-opacity="0"/></radialGradient><filter id="blur"><feGaussianBlur stdDeviation="14"/></filter></defs>
<rect width="1200" height="700" fill="url(#g)"/><rect width="1200" height="700" fill="url(#r)"/><g opacity=".34" filter="url(#blur)"><circle cx="633" cy="270" r="26" fill="#f7d071" opacity="0.19"/><circle cx="893" cy="510" r="43" fill="#ffffff" opacity="0.12"/><circle cx="278" cy="43" r="51" fill="#ffffff" opacity="0.24"/><circle cx="208" cy="400" r="44" fill="#f7d071" opacity="0.17"/><circle cx="261" cy="214" r="49" fill="#123b5c" opacity="0.15"/><circle cx="430" cy="535" r="26" fill="#123b5c" opacity="0.13"/><circle cx="688" cy="354" r="36" fill="#ffffff" opacity="0.23"/><circle cx="189" cy="563" r="34" fill="#123b5c" opacity="0.19"/><circle cx="175" cy="631" r="48" fill="#ffffff" opacity="0.08"/><circle cx="449" cy="545" r="36" fill="#123b5c" opacity="0.13"/><circle cx="601" cy="212" r="30" fill="#f7d071" opacity="0.16"/><circle cx="1137" cy="400" r="29" fill="#f7d071" opacity="0.14"/><circle cx="1087" cy="573" r="34" fill="#f7d071" opacity="0.14"/><circle cx="560" cy="375" r="47" fill="#ffffff" opacity="0.18"/><circle cx="1043" cy="379" r="43" fill="#123b5c" opacity="0.11"/><circle cx="877" cy="56" r="34" fill="#123b5c" opacity="0.16"/><circle cx="755" cy="264" r="30" fill="#123b5c" opacity="0.15"/><circle cx="1084" cy="212" r="23" fill="#ffffff" opacity="0.19"/><circle cx="401" cy="523" r="15" fill="#ffffff" opacity="0.08"/><circle cx="853" cy="640" r="43" fill="#ffffff" opacity="0.22"/><circle cx="905" cy="74" r="33" fill="#ffffff" opacity="0.22"/><circle cx="250" cy="641" r="56" fill="#f7d071" opacity="0.19"/><circle cx="549" cy="350" r="50" fill="#123b5c" opacity="0.15"/><circle cx="527" cy="590" r="17" fill="#ffffff" opacity="0.13"/><circle cx="957" cy="396" r="49" fill="#ffffff" opacity="0.23"/><circle cx="391" cy="670" r="33" fill="#123b5c" opacity="0.22"/><circle cx="477" cy="330" r="27" fill="#f7d071" opacity="0.14"/><circle cx="1089" cy="525" r="50" fill="#ffffff" opacity="0.24"/><circle cx="1064" cy="201" r="25" fill="#123b5c" opacity="0.12"/><circle cx="231" cy="403" r="28" fill="#ffffff" opacity="0.15"/><circle cx="942" cy="467" r="45" fill="#ffffff" opacity="0.12"/><circle cx="1052" cy="401" r="39" fill="#ffffff" opacity="0.15"/><circle cx="484" cy="461" r="17" fill="#123b5c" opacity="0.12"/><circle cx="992" cy="597" r="39" fill="#ffffff" opacity="0.15"/><circle cx="871" cy="551" r="24" fill="#123b5c" opacity="0.16"/></g><g opacity=".32" stroke="#f7d071" stroke-width="2" fill="none"><path d="M -100 420.0 C 180 390.0, 420 520.0, 1300 440.0"/><path d="M -10 453.7 C 250 362.4, 475 560.9, 1300 417.0"/><path d="M 80 456.4 C 320 305.0, 530 485.9, 1300 369.2"/><path d="M 170 425.6 C 390 270.6, 585 507.4, 1300 340.5"/><path d="M 260 389.7 C 460 290.8, 640 564.5, 1300 357.3"/><path d="M 350 381.6 C 530 347.0, 695 495.5, 1300 404.2"/><path d="M 440 408.8 C 600 387.6, 750 495.9, 1300 438.0"/><path d="M 530 446.3 C 670 375.2, 805 564.6, 1300 427.7"/><path d="M 620 459.6 C 740 321.3, 860 507.0, 1300 382.7"/><path d="M 710 436.5 C 810 275.3, 915 486.2, 1300 344.4"/></g><g opacity=".16" fill="#fff7dd"><text x="58" y="640" font-family="Arial, sans-serif" font-size="46" font-weight="900">AQUA FANTASIA · Master Ocean</text></g></svg>