<svg xmlns="http://www.w3.org/2000/svg" viewBox="0 0 1200 700" preserveAspectRatio="none">
<defs><linearGradient id="g" x1="0" y1="0" x2="1" y2="1"><stop offset="0" stop-color="#083344"/><stop offset="0.55" stop-color="#2563eb"/><stop offset="1" stop-color="#083344"/></linearGradient><radialGradient id="r" cx="50%" cy="35%" r="65%"><stop offset="0" stop-color="#f7d071" stop-opacity=".34"/><stop offset=".45" stop-color="#2563eb" stop-opacity=".16"/><stop offset="1" stop-color="#083344" stop-opacity="0"/></radialGradient><filter id="blur"><feGaussianBlur stdDeviation="14"/></filter></defs>
<rect width="1200" height="700" fill="url(#g)"/><rect width="1200" height="700" fill="url(#r)"/><g opacity=".34" filter="url(#blur)"><circle cx="149" cy="467" r="19" fill="#2563eb" opacity="0.13"/><circle cx="269" cy="602" r="26" fill="#2563eb" opacity="0.16"/><circle cx="998" cy="569" r="53" fill="#f7d071" opacity="0.23"/><circle cx="42" cy="318" r="47" fill="#2563eb" opacity="0.08"/><circle cx="886" cy="432" r="45" fill="#f7d071" opacity="0.09"/><circle cx="1087" cy="661" r="47" fill="#ffffff" opacity="0.12"/><circle cx="157" cy="341" r="15" fill="#f7d071" opacity="0.17"/><circle cx="241" cy="38" r="27" fill="#ffffff" opacity="0.17"/><circle cx="341" cy="292" r="40" fill="#2563eb" opacity="0.14"/><circle cx="665" cy="202" r="29" fill="#2563eb" opacity="0.15"/><circle cx="936" cy="114" r="55" fill="#2563eb" opacity="0.08"/><circle cx="699" cy="669" r="18" fill="#f7d071" opacity="0.10"/><circle cx="1120" cy="349" r="37" fill="#2563eb" opacity="0.10"/><circle cx="1134" cy="423" r="42" fill="#f7d071" opacity="0.12"/><circle cx="259" cy="111" r="35" fill="#f7d071" opacity="0.13"/><circle cx="745" cy="375" r="38" fill="#f7d071" opacity="0.23"/><circle cx="832" cy="583" r="38" fill="#ffffff" opacity="0.17"/><circle cx="554" cy="329" r="43" fill="#2563eb" opacity="0.16"/><circle cx="629" cy="109" r="28" fill="#ffffff" opacity="0.18"/><circle cx="990" cy="602" r="21" fill="#f7d071" opacity="0.11"/><circle cx="845" cy="563" r="23" fill="#f7d071" opacity="0.11"/><circle cx="114" cy="45" r="46" fill="#2563eb" opacity="0.14"/><circle cx="433" cy="331" r="35" fill="#2563eb" opacity="0.10"/><circle cx="1127" cy="528" r="39" fill="#ffffff" opacity="0.13"/><circle cx="164" cy="572" r="37" fill="#2563eb" opacity="0.21"/><circle cx="734" cy="215" r="53" fill="#2563eb" opacity="0.22"/><circle cx="246" cy="124" r="40" fill="#ffffff" opacity="0.15"/><circle cx="286" cy="487" r="39" fill="#f7d071" opacity="0.21"/><circle cx="599" cy="340" r="29" fill="#f7d071" opacity="0.18"/><circle cx="259" cy="330" r="21" fill="#2563eb" opacity="0.12"/><circle cx="218" cy="149" r="23" fill="#2563eb" opacity="0.18"/><circle cx="325" cy="196" r="40" fill="#2563eb" opacity="0.22"/><circle cx="363" cy="236" r="22" fill="#ffffff" opacity="0.09"/><circle cx="438" cy="384" r="15" fill="#ffffff" opacity="0.10"/><circle cx="809" cy="558" r="18" fill="#f7d071" opacity="0.09"/></g><g opacity=".32" stroke="#f7d071" stroke-width="2" fill="none"><path d="M -100 420.0 C 180 390.0, 420 520.0, 1300 440.0"/><path d="M -10 453.7 C 250 362.4, 475 560.9, 1300 417.0"/><path d="M 80 456.4 C 320 305.0, 530 485.9, 1300 369.2"/><path d="M 170 425.6 C 390 270.6, 585 507.4, 1300 340.5"/><path d="M 260 389.7 C 460 290.8, 640 564.5, 1300 357.3"/><path d="M 350 381.6 C 530 347.0, 695 495.5, 1300 404.2"/><path d="M 440 408.8 C 600 387.6, 750 495.9, 1300 438.0"/><path d="M 530 446.3 C 670 375.2, 805 564.6, 1300 427.7"/><path d="M 620 459.6 C 740 321.3, 860 507.0, 1300 382.7"/><path d="M 710 436.5 C 810 275.3, 915 486.2, 1300 344.4"/></g><g opacity=".16" fill="#fff7dd"><text x="58" y="640" font-family="Arial, sans-serif" font-size="46" font-weight="900">AQUA FANTASIA · Fish Trail</text></g></svg>