<svg xmlns="http://www.w3.org/2000/svg" viewBox="0 0 1200 700" preserveAspectRatio="none">
<defs><linearGradient id="g" x1="0" y1="0" x2="1" y2="1"><stop offset="0" stop-color="#1e1b4b"/><stop offset="0.55" stop-color="#ef4444"/><stop offset="1" stop-color="#1e1b4b"/></linearGradient><radialGradient id="r" cx="50%" cy="35%" r="65%"><stop offset="0" stop-color="#fff7dd" stop-opacity=".34"/><stop offset=".45" stop-color="#ef4444" stop-opacity=".16"/><stop offset="1" stop-color="#1e1b4b" stop-opacity="0"/></radialGradient><filter id="blur"><feGaussianBlur stdDeviation="14"/></filter></defs>
<rect width="1200" height="700" fill="url(#g)"/><rect width="1200" height="700" fill="url(#r)"/><g opacity=".34" filter="url(#blur)"><circle cx="681" cy="471" r="33" fill="#fff7dd" opacity="0.17"/><circle cx="349" cy="381" r="49" fill="#ef4444" opacity="0.22"/><circle cx="1155" cy="332" r="31" fill="#fff7dd" opacity="0.14"/><circle cx="826" cy="509" r="51" fill="#ffffff" opacity="0.10"/><circle cx="703" cy="581" r="20" fill="#ffffff" opacity="0.10"/><circle cx="1050" cy="599" r="18" fill="#ffffff" opacity="0.11"/><circle cx="639" cy="598" r="16" fill="#ef4444" opacity="0.16"/><circle cx="41" cy="166" r="51" fill="#fff7dd" opacity="0.22"/><circle cx="681" cy="193" r="48" fill="#ffffff" opacity="0.20"/><circle cx="77" cy="227" r="41" fill="#ef4444" opacity="0.15"/><circle cx="326" cy="206" r="31" fill="#ffffff" opacity="0.23"/><circle cx="759" cy="376" r="18" fill="#ffffff" opacity="0.11"/><circle cx="670" cy="424" r="22" fill="#ef4444" opacity="0.21"/><circle cx="64" cy="194" r="37" fill="#ef4444" opacity="0.16"/><circle cx="730" cy="468" r="46" fill="#ef4444" opacity="0.10"/><circle cx="420" cy="645" r="39" fill="#ffffff" opacity="0.22"/><circle cx="371" cy="571" r="27" fill="#fff7dd" opacity="0.12"/><circle cx="802" cy="635" r="25" fill="#fff7dd" opacity="0.10"/><circle cx="123" cy="643" r="24" fill="#ffffff" opacity="0.16"/><circle cx="1131" cy="647" r="51" fill="#ffffff" opacity="0.13"/><circle cx="573" cy="44" r="14" fill="#fff7dd" opacity="0.17"/><circle cx="232" cy="557" r="45" fill="#ef4444" opacity="0.18"/><circle cx="460" cy="596" r="31" fill="#ef4444" opacity="0.08"/><circle cx="66" cy="477" r="16" fill="#ffffff" opacity="0.21"/><circle cx="251" cy="302" r="36" fill="#ef4444" opacity="0.17"/><circle cx="543" cy="160" r="48" fill="#fff7dd" opacity="0.14"/><circle cx="568" cy="469" r="42" fill="#fff7dd" opacity="0.21"/><circle cx="995" cy="313" r="26" fill="#ef4444" opacity="0.19"/><circle cx="258" cy="625" r="39" fill="#ffffff" opacity="0.22"/><circle cx="681" cy="315" r="19" fill="#fff7dd" opacity="0.22"/><circle cx="1114" cy="274" r="48" fill="#ef4444" opacity="0.24"/><circle cx="260" cy="617" r="17" fill="#fff7dd" opacity="0.20"/><circle cx="951" cy="626" r="42" fill="#ffffff" opacity="0.17"/><circle cx="639" cy="470" r="16" fill="#fff7dd" opacity="0.20"/><circle cx="939" cy="321" r="18" fill="#ffffff" opacity="0.11"/></g><g opacity=".32" stroke="#fff7dd" stroke-width="2" fill="none"><path d="M -100 420.0 C 180 390.0, 420 520.0, 1300 440.0"/><path d="M -10 453.7 C 250 362.4, 475 560.9, 1300 417.0"/><path d="M 80 456.4 C 320 305.0, 530 485.9, 1300 369.2"/><path d="M 170 425.6 C 390 270.6, 585 507.4, 1300 340.5"/><path d="M 260 389.7 C 460 290.8, 640 564.5, 1300 357.3"/><path d="M 350 381.6 C 530 347.0, 695 495.5, 1300 404.2"/><path d="M 440 408.8 C 600 387.6, 750 495.9, 1300 438.0"/><path d="M 530 446.3 C 670 375.2, 805 564.6, 1300 427.7"/><path d="M 620 459.6 C 740 321.3, 860 507.0, 1300 382.7"/><path d="M 710 436.5 C 810 275.3, 915 486.2, 1300 344.4"/></g><g opacity=".16" fill="#fff7dd"><text x="58" y="640" font-family="Arial, sans-serif" font-size="46" font-weight="900">AQUA FANTASIA · Bobber</text></g></svg>