<svg xmlns="http://www.w3.org/2000/svg" viewBox="0 0 1200 700" preserveAspectRatio="none">
<defs><linearGradient id="g" x1="0" y1="0" x2="1" y2="1"><stop offset="0" stop-color="#450a0a"/><stop offset="0.55" stop-color="#f43f5e"/><stop offset="1" stop-color="#450a0a"/></linearGradient><radialGradient id="r" cx="50%" cy="35%" r="65%"><stop offset="0" stop-color="#facc15" stop-opacity=".34"/><stop offset=".45" stop-color="#f43f5e" stop-opacity=".16"/><stop offset="1" stop-color="#450a0a" stop-opacity="0"/></radialGradient><filter id="blur"><feGaussianBlur stdDeviation="14"/></filter></defs>
<rect width="1200" height="700" fill="url(#g)"/><rect width="1200" height="700" fill="url(#r)"/><g opacity=".34" filter="url(#blur)"><circle cx="669" cy="388" r="36" fill="#ffffff" opacity="0.10"/><circle cx="161" cy="268" r="49" fill="#facc15" opacity="0.21"/><circle cx="509" cy="480" r="41" fill="#facc15" opacity="0.22"/><circle cx="1026" cy="95" r="43" fill="#facc15" opacity="0.16"/><circle cx="506" cy="287" r="22" fill="#f43f5e" opacity="0.12"/><circle cx="1078" cy="261" r="54" fill="#f43f5e" opacity="0.24"/><circle cx="314" cy="423" r="37" fill="#facc15" opacity="0.20"/><circle cx="296" cy="56" r="37" fill="#ffffff" opacity="0.19"/><circle cx="405" cy="607" r="44" fill="#f43f5e" opacity="0.17"/><circle cx="727" cy="129" r="34" fill="#f43f5e" opacity="0.17"/><circle cx="544" cy="277" r="51" fill="#facc15" opacity="0.08"/><circle cx="478" cy="82" r="25" fill="#f43f5e" opacity="0.11"/><circle cx="369" cy="606" r="28" fill="#facc15" opacity="0.22"/><circle cx="677" cy="376" r="53" fill="#f43f5e" opacity="0.16"/><circle cx="491" cy="542" r="34" fill="#ffffff" opacity="0.09"/><circle cx="988" cy="492" r="47" fill="#f43f5e" opacity="0.17"/><circle cx="493" cy="614" r="29" fill="#f43f5e" opacity="0.14"/><circle cx="165" cy="217" r="55" fill="#facc15" opacity="0.14"/><circle cx="758" cy="209" r="38" fill="#ffffff" opacity="0.10"/><circle cx="1128" cy="325" r="26" fill="#ffffff" opacity="0.22"/><circle cx="512" cy="193" r="47" fill="#ffffff" opacity="0.22"/><circle cx="220" cy="410" r="21" fill="#facc15" opacity="0.18"/><circle cx="87" cy="182" r="50" fill="#facc15" opacity="0.18"/><circle cx="479" cy="339" r="31" fill="#ffffff" opacity="0.09"/><circle cx="1074" cy="448" r="45" fill="#facc15" opacity="0.12"/><circle cx="716" cy="505" r="32" fill="#facc15" opacity="0.23"/><circle cx="100" cy="663" r="46" fill="#facc15" opacity="0.20"/><circle cx="301" cy="608" r="41" fill="#f43f5e" opacity="0.14"/><circle cx="179" cy="517" r="48" fill="#ffffff" opacity="0.15"/><circle cx="891" cy="572" r="32" fill="#ffffff" opacity="0.21"/><circle cx="110" cy="272" r="21" fill="#f43f5e" opacity="0.17"/><circle cx="627" cy="462" r="40" fill="#ffffff" opacity="0.17"/><circle cx="439" cy="521" r="32" fill="#facc15" opacity="0.16"/><circle cx="221" cy="529" r="47" fill="#ffffff" opacity="0.13"/><circle cx="1095" cy="175" r="50" fill="#facc15" opacity="0.13"/></g><g opacity=".32" stroke="#facc15" stroke-width="2" fill="none"><path d="M -100 420.0 C 180 390.0, 420 520.0, 1300 440.0"/><path d="M -10 453.7 C 250 362.4, 475 560.9, 1300 417.0"/><path d="M 80 456.4 C 320 305.0, 530 485.9, 1300 369.2"/><path d="M 170 425.6 C 390 270.6, 585 507.4, 1300 340.5"/><path d="M 260 389.7 C 460 290.8, 640 564.5, 1300 357.3"/><path d="M 350 381.6 C 530 347.0, 695 495.5, 1300 404.2"/><path d="M 440 408.8 C 600 387.6, 750 495.9, 1300 438.0"/><path d="M 530 446.3 C 670 375.2, 805 564.6, 1300 427.7"/><path d="M 620 459.6 C 740 321.3, 860 507.0, 1300 382.7"/><path d="M 710 436.5 C 810 275.3, 915 486.2, 1300 344.4"/></g><g opacity=".16" fill="#fff7dd"><text x="58" y="640" font-family="Arial, sans-serif" font-size="46" font-weight="900">AQUA FANTASIA · Tension</text></g></svg>