<svg xmlns="http://www.w3.org/2000/svg" viewBox="0 0 1200 700" preserveAspectRatio="none">
<defs><linearGradient id="g" x1="0" y1="0" x2="1" y2="1"><stop offset="0" stop-color="#030712"/><stop offset="0.55" stop-color="#1d4ed8"/><stop offset="1" stop-color="#030712"/></linearGradient><radialGradient id="r" cx="50%" cy="35%" r="65%"><stop offset="0" stop-color="#f97316" stop-opacity=".34"/><stop offset=".45" stop-color="#1d4ed8" stop-opacity=".16"/><stop offset="1" stop-color="#030712" stop-opacity="0"/></radialGradient><filter id="blur"><feGaussianBlur stdDeviation="14"/></filter></defs>
<rect width="1200" height="700" fill="url(#g)"/><rect width="1200" height="700" fill="url(#r)"/><g opacity=".34" filter="url(#blur)"><circle cx="721" cy="408" r="36" fill="#ffffff" opacity="0.10"/><circle cx="695" cy="179" r="54" fill="#ffffff" opacity="0.21"/><circle cx="1058" cy="235" r="16" fill="#f97316" opacity="0.12"/><circle cx="554" cy="319" r="43" fill="#f97316" opacity="0.14"/><circle cx="728" cy="208" r="44" fill="#ffffff" opacity="0.13"/><circle cx="1111" cy="468" r="38" fill="#1d4ed8" opacity="0.21"/><circle cx="1001" cy="192" r="16" fill="#ffffff" opacity="0.11"/><circle cx="902" cy="570" r="53" fill="#ffffff" opacity="0.20"/><circle cx="261" cy="223" r="56" fill="#f97316" opacity="0.17"/><circle cx="467" cy="385" r="40" fill="#1d4ed8" opacity="0.22"/><circle cx="497" cy="156" r="31" fill="#ffffff" opacity="0.23"/><circle cx="200" cy="281" r="30" fill="#ffffff" opacity="0.14"/><circle cx="161" cy="651" r="36" fill="#ffffff" opacity="0.18"/><circle cx="95" cy="570" r="29" fill="#f97316" opacity="0.18"/><circle cx="213" cy="492" r="18" fill="#ffffff" opacity="0.19"/><circle cx="449" cy="312" r="17" fill="#ffffff" opacity="0.14"/><circle cx="265" cy="189" r="26" fill="#ffffff" opacity="0.23"/><circle cx="279" cy="635" r="26" fill="#1d4ed8" opacity="0.12"/><circle cx="988" cy="399" r="16" fill="#1d4ed8" opacity="0.15"/><circle cx="199" cy="443" r="51" fill="#f97316" opacity="0.10"/><circle cx="1024" cy="554" r="26" fill="#f97316" opacity="0.18"/><circle cx="302" cy="643" r="33" fill="#1d4ed8" opacity="0.18"/><circle cx="75" cy="46" r="34" fill="#1d4ed8" opacity="0.11"/><circle cx="1049" cy="222" r="35" fill="#ffffff" opacity="0.14"/><circle cx="792" cy="574" r="14" fill="#ffffff" opacity="0.18"/><circle cx="835" cy="666" r="39" fill="#f97316" opacity="0.24"/><circle cx="735" cy="47" r="30" fill="#1d4ed8" opacity="0.18"/><circle cx="1066" cy="613" r="37" fill="#ffffff" opacity="0.21"/><circle cx="917" cy="340" r="35" fill="#1d4ed8" opacity="0.18"/><circle cx="495" cy="662" r="34" fill="#ffffff" opacity="0.15"/><circle cx="671" cy="205" r="30" fill="#f97316" opacity="0.11"/><circle cx="87" cy="233" r="42" fill="#1d4ed8" opacity="0.20"/><circle cx="686" cy="664" r="26" fill="#1d4ed8" opacity="0.23"/><circle cx="563" cy="430" r="36" fill="#1d4ed8" opacity="0.15"/><circle cx="411" cy="341" r="35" fill="#1d4ed8" opacity="0.17"/></g><g opacity=".32" stroke="#f97316" stroke-width="2" fill="none"><path d="M -100 420.0 C 180 390.0, 420 520.0, 1300 440.0"/><path d="M -10 453.7 C 250 362.4, 475 560.9, 1300 417.0"/><path d="M 80 456.4 C 320 305.0, 530 485.9, 1300 369.2"/><path d="M 170 425.6 C 390 270.6, 585 507.4, 1300 340.5"/><path d="M 260 389.7 C 460 290.8, 640 564.5, 1300 357.3"/><path d="M 350 381.6 C 530 347.0, 695 495.5, 1300 404.2"/><path d="M 440 408.8 C 600 387.6, 750 495.9, 1300 438.0"/><path d="M 530 446.3 C 670 375.2, 805 564.6, 1300 427.7"/><path d="M 620 459.6 C 740 321.3, 860 507.0, 1300 382.7"/><path d="M 710 436.5 C 810 275.3, 915 486.2, 1300 344.4"/></g><g opacity=".16" fill="#fff7dd"><text x="58" y="640" font-family="Arial, sans-serif" font-size="46" font-weight="900">AQUA FANTASIA · Mobile Render Shell</text></g></svg>