<svg xmlns="http://www.w3.org/2000/svg" viewBox="0 0 1200 700" preserveAspectRatio="none">
<defs><linearGradient id="g" x1="0" y1="0" x2="1" y2="1"><stop offset="0" stop-color="#020617"/><stop offset="0.55" stop-color="#38bdf8"/><stop offset="1" stop-color="#020617"/></linearGradient><radialGradient id="r" cx="50%" cy="35%" r="65%"><stop offset="0" stop-color="#f7d071" stop-opacity=".34"/><stop offset=".45" stop-color="#38bdf8" stop-opacity=".16"/><stop offset="1" stop-color="#020617" stop-opacity="0"/></radialGradient><filter id="blur"><feGaussianBlur stdDeviation="14"/></filter></defs>
<rect width="1200" height="700" fill="url(#g)"/><rect width="1200" height="700" fill="url(#r)"/><g opacity=".34" filter="url(#blur)"><circle cx="493" cy="534" r="27" fill="#38bdf8" opacity="0.12"/><circle cx="930" cy="655" r="27" fill="#ffffff" opacity="0.09"/><circle cx="466" cy="96" r="28" fill="#ffffff" opacity="0.16"/><circle cx="858" cy="92" r="16" fill="#f7d071" opacity="0.14"/><circle cx="1119" cy="392" r="54" fill="#38bdf8" opacity="0.23"/><circle cx="971" cy="496" r="36" fill="#ffffff" opacity="0.22"/><circle cx="235" cy="340" r="35" fill="#ffffff" opacity="0.13"/><circle cx="586" cy="545" r="55" fill="#ffffff" opacity="0.15"/><circle cx="457" cy="352" r="19" fill="#38bdf8" opacity="0.21"/><circle cx="905" cy="158" r="32" fill="#ffffff" opacity="0.20"/><circle cx="139" cy="564" r="26" fill="#f7d071" opacity="0.19"/><circle cx="430" cy="377" r="56" fill="#f7d071" opacity="0.10"/><circle cx="1119" cy="418" r="51" fill="#f7d071" opacity="0.12"/><circle cx="869" cy="387" r="17" fill="#38bdf8" opacity="0.24"/><circle cx="497" cy="584" r="18" fill="#f7d071" opacity="0.10"/><circle cx="192" cy="485" r="44" fill="#f7d071" opacity="0.16"/><circle cx="625" cy="72" r="27" fill="#f7d071" opacity="0.24"/><circle cx="1073" cy="321" r="39" fill="#f7d071" opacity="0.08"/><circle cx="385" cy="172" r="40" fill="#f7d071" opacity="0.22"/><circle cx="397" cy="588" r="20" fill="#f7d071" opacity="0.19"/><circle cx="828" cy="583" r="23" fill="#f7d071" opacity="0.12"/><circle cx="414" cy="132" r="28" fill="#ffffff" opacity="0.16"/><circle cx="224" cy="209" r="54" fill="#38bdf8" opacity="0.16"/><circle cx="624" cy="329" r="19" fill="#38bdf8" opacity="0.20"/><circle cx="232" cy="128" r="37" fill="#f7d071" opacity="0.15"/><circle cx="1012" cy="186" r="51" fill="#f7d071" opacity="0.23"/><circle cx="979" cy="479" r="27" fill="#38bdf8" opacity="0.17"/><circle cx="122" cy="465" r="15" fill="#f7d071" opacity="0.19"/><circle cx="607" cy="427" r="55" fill="#38bdf8" opacity="0.23"/><circle cx="785" cy="424" r="26" fill="#f7d071" opacity="0.21"/><circle cx="866" cy="64" r="28" fill="#38bdf8" opacity="0.12"/><circle cx="862" cy="487" r="22" fill="#f7d071" opacity="0.18"/><circle cx="1027" cy="526" r="14" fill="#ffffff" opacity="0.10"/><circle cx="134" cy="616" r="20" fill="#38bdf8" opacity="0.23"/><circle cx="428" cy="32" r="47" fill="#ffffff" opacity="0.18"/></g><g opacity=".32" stroke="#f7d071" stroke-width="2" fill="none"><path d="M -100 420.0 C 180 390.0, 420 520.0, 1300 440.0"/><path d="M -10 453.7 C 250 362.4, 475 560.9, 1300 417.0"/><path d="M 80 456.4 C 320 305.0, 530 485.9, 1300 369.2"/><path d="M 170 425.6 C 390 270.6, 585 507.4, 1300 340.5"/><path d="M 260 389.7 C 460 290.8, 640 564.5, 1300 357.3"/><path d="M 350 381.6 C 530 347.0, 695 495.5, 1300 404.2"/><path d="M 440 408.8 C 600 387.6, 750 495.9, 1300 438.0"/><path d="M 530 446.3 C 670 375.2, 805 564.6, 1300 427.7"/><path d="M 620 459.6 C 740 321.3, 860 507.0, 1300 382.7"/><path d="M 710 436.5 C 810 275.3, 915 486.2, 1300 344.4"/></g><g opacity=".16" fill="#fff7dd"><text x="58" y="640" font-family="Arial, sans-serif" font-size="46" font-weight="900">AQUA FANTASIA · Glow</text></g></svg>