<svg xmlns="http://www.w3.org/2000/svg" viewBox="0 0 1200 700" preserveAspectRatio="none">
<defs><linearGradient id="g" x1="0" y1="0" x2="1" y2="1"><stop offset="0" stop-color="#0f172a"/><stop offset="0.55" stop-color="#0891b2"/><stop offset="1" stop-color="#0f172a"/></linearGradient><radialGradient id="r" cx="50%" cy="35%" r="65%"><stop offset="0" stop-color="#c4b5fd" stop-opacity=".34"/><stop offset=".45" stop-color="#0891b2" stop-opacity=".16"/><stop offset="1" stop-color="#0f172a" stop-opacity="0"/></radialGradient><filter id="blur"><feGaussianBlur stdDeviation="14"/></filter></defs>
<rect width="1200" height="700" fill="url(#g)"/><rect width="1200" height="700" fill="url(#r)"/><g opacity=".34" filter="url(#blur)"><circle cx="577" cy="387" r="37" fill="#0891b2" opacity="0.12"/><circle cx="692" cy="340" r="55" fill="#0891b2" opacity="0.24"/><circle cx="451" cy="124" r="47" fill="#c4b5fd" opacity="0.08"/><circle cx="1058" cy="266" r="14" fill="#0891b2" opacity="0.21"/><circle cx="348" cy="646" r="39" fill="#ffffff" opacity="0.22"/><circle cx="148" cy="585" r="30" fill="#0891b2" opacity="0.21"/><circle cx="942" cy="181" r="37" fill="#ffffff" opacity="0.12"/><circle cx="484" cy="351" r="23" fill="#0891b2" opacity="0.23"/><circle cx="112" cy="113" r="54" fill="#ffffff" opacity="0.16"/><circle cx="961" cy="334" r="36" fill="#0891b2" opacity="0.17"/><circle cx="85" cy="168" r="27" fill="#0891b2" opacity="0.13"/><circle cx="948" cy="543" r="42" fill="#ffffff" opacity="0.15"/><circle cx="258" cy="483" r="48" fill="#ffffff" opacity="0.17"/><circle cx="568" cy="479" r="45" fill="#ffffff" opacity="0.23"/><circle cx="766" cy="341" r="17" fill="#ffffff" opacity="0.12"/><circle cx="48" cy="641" r="39" fill="#ffffff" opacity="0.13"/><circle cx="686" cy="592" r="47" fill="#0891b2" opacity="0.17"/><circle cx="218" cy="608" r="24" fill="#c4b5fd" opacity="0.19"/><circle cx="70" cy="452" r="44" fill="#0891b2" opacity="0.12"/><circle cx="965" cy="425" r="52" fill="#0891b2" opacity="0.17"/><circle cx="722" cy="358" r="28" fill="#0891b2" opacity="0.20"/><circle cx="1027" cy="495" r="27" fill="#ffffff" opacity="0.09"/><circle cx="300" cy="364" r="17" fill="#0891b2" opacity="0.12"/><circle cx="914" cy="47" r="22" fill="#0891b2" opacity="0.10"/><circle cx="927" cy="246" r="25" fill="#ffffff" opacity="0.16"/><circle cx="808" cy="61" r="50" fill="#ffffff" opacity="0.14"/><circle cx="786" cy="301" r="31" fill="#c4b5fd" opacity="0.14"/><circle cx="1140" cy="616" r="41" fill="#0891b2" opacity="0.09"/><circle cx="624" cy="465" r="49" fill="#ffffff" opacity="0.12"/><circle cx="682" cy="417" r="25" fill="#0891b2" opacity="0.10"/><circle cx="120" cy="213" r="48" fill="#ffffff" opacity="0.18"/><circle cx="756" cy="206" r="37" fill="#c4b5fd" opacity="0.22"/><circle cx="1155" cy="271" r="30" fill="#ffffff" opacity="0.23"/><circle cx="851" cy="255" r="16" fill="#c4b5fd" opacity="0.18"/><circle cx="942" cy="72" r="27" fill="#0891b2" opacity="0.15"/></g><g opacity=".32" stroke="#c4b5fd" stroke-width="2" fill="none"><path d="M -100 420.0 C 180 390.0, 420 520.0, 1300 440.0"/><path d="M -10 453.7 C 250 362.4, 475 560.9, 1300 417.0"/><path d="M 80 456.4 C 320 305.0, 530 485.9, 1300 369.2"/><path d="M 170 425.6 C 390 270.6, 585 507.4, 1300 340.5"/><path d="M 260 389.7 C 460 290.8, 640 564.5, 1300 357.3"/><path d="M 350 381.6 C 530 347.0, 695 495.5, 1300 404.2"/><path d="M 440 408.8 C 600 387.6, 750 495.9, 1300 438.0"/><path d="M 530 446.3 C 670 375.2, 805 564.6, 1300 427.7"/><path d="M 620 459.6 C 740 321.3, 860 507.0, 1300 382.7"/><path d="M 710 436.5 C 810 275.3, 915 486.2, 1300 344.4"/></g><g opacity=".16" fill="#fff7dd"><text x="58" y="640" font-family="Arial, sans-serif" font-size="46" font-weight="900">AQUA FANTASIA · Performance</text></g></svg>