<svg xmlns="http://www.w3.org/2000/svg" viewBox="0 0 1200 800" preserveAspectRatio="xMidYMid slice">
<defs>
<linearGradient id="g" x1="0" y1="0" x2="1" y2="1"><stop stop-color="#061526"/><stop offset=".55" stop-color="#0f766e"/><stop offset="1" stop-color="#020617"/></linearGradient>
<radialGradient id="r" cx="35%" cy="22%" r="65%"><stop stop-color="#65f4c8" stop-opacity=".55"/><stop offset=".38" stop-color="#65f4c8" stop-opacity=".12"/><stop offset="1" stop-color="#65f4c8" stop-opacity="0"/></radialGradient>
<filter id="blur"><feGaussianBlur stdDeviation="14"/></filter>
</defs><rect width="1200" height="800" fill="url(#g)"/><rect width="1200" height="800" fill="url(#r)"/>
<g opacity=".24" stroke="#fff7dd" stroke-width="2" fill="none"><path d="M-80 160.0 C 150 150.0, 300 300.0, 640 265.0"/><path d="M10 193.65883939231585 C 240 117.82116141076978, 370 359.1043327436693, 684 239.71662682274768"/><path d="M100 196.37189707302727 C 330 50.86972144170004, 440 250.80783780498467, 728 187.11192398990715"/><path d="M190 165.6448003223947 C 420 10.700525237968819, 510 281.8379926170698, 772 155.5504126869755"/><path d="M280 129.72790018768288 C 510 34.244946539547165, 580 364.3082860305198, 816 174.04960085250133"/><path d="M370 121.64302901347446 C 600 99.85635298242583, 650 264.63862779219096, 860 225.60142020047743"/><path d="M460 148.82338007204297 C 690 147.21192006552562, 720 265.1227603299717, 904 262.8093657657701"/><path d="M550 186.27946394875156 C 780 132.7731578040313, 790 364.3894781201666, 948 251.46462398888175"/><path d="M640 199.57432986493527 C 870 69.81499763339706, 860 281.28628441677074, 992 201.99749814052626"/><path d="M730 176.48473940967025 C 960 16.220881668072614, 930 251.18582895984105, 1036 159.88783559634277"/><path d="M820 138.2391555644252 C 1050 21.26499296464833, 1000 359.3414412972958, 1080 163.8510659007951"/><path d="M910 120.00039173797185 C 1140 80.30979885916355, 1070 299.4246648961238, 1124 210.2434133893428"/><path d="M1000 138.5370832799826 C 1230 139.06977711127445, 1140 241.13740646956944, 1168 256.4119677302871"/></g>
<g opacity=".38" filter="url(#blur)"><circle cx="210" cy="220" r="105" fill="#65f4c8"/><circle cx="930" cy="180" r="130" fill="#67e8f9"/><circle cx="760" cy="650" r="180" fill="#f7d071" opacity=".38"/></g>
<g opacity=".72"><path d="M90 610 C260 530 420 690 570 602 C720 512 840 588 1110 510 L1110 800 L90 800 Z" fill="#051525" opacity=".56"/><path d="M0 690 C260 600 410 760 620 650 C760 575 930 710 1200 590 L1200 800 L0 800 Z" fill="#020617" opacity=".68"/></g>
<text x="64" y="96" fill="#fff7dd" opacity=".82" font-family="Arial, sans-serif" font-size="42" font-weight="800">Runtime Diet 4.8</text>
</svg>