<svg xmlns="http://www.w3.org/2000/svg" viewBox="0 0 512 320" role="img" aria-label="UI TRIM">
  <defs>
    <linearGradient id="g" x1="0" y1="0" x2="1" y2="1"><stop offset="0" stop-color="#0b1120"/><stop offset=".52" stop-color="#38bdf8"/><stop offset="1" stop-color="#f9a8d4"/></linearGradient>
    <radialGradient id="r" cx="50%" cy="38%" r="70%"><stop offset="0" stop-color="#fff7cf" stop-opacity=".55"/><stop offset=".38" stop-color="#38bdf8" stop-opacity=".22"/><stop offset="1" stop-color="#020617" stop-opacity=".05"/></radialGradient>
    <filter id="soft"><feGaussianBlur stdDeviation="5"/></filter>
  </defs>
  <rect width="512" height="320" rx="36" fill="#061526"/>
  <rect x="10" y="10" width="492" height="300" rx="31" fill="url(#g)" opacity=".42"/>
  <path d="M0 232 C80 196 128 278 210 232 S364 178 512 228 L512 320 L0 320 Z" fill="#03111f" opacity=".76"/>
  <path d="M0 246 C92 216 143 279 228 240 S386 200 512 246" fill="none" stroke="#eff6ff" stroke-opacity=".28" stroke-width="3"/>
  <circle cx="112" cy="74" r="54" fill="url(#r)" opacity=".92" filter="url(#soft)"/>
  <circle cx="400" cy="90" r="82" fill="#f9a8d4" opacity=".12" filter="url(#soft)"/>
  <g fill="none" stroke="#fff7dd" stroke-opacity=".24" stroke-width="2">
    <path d="M76 166 C160 118 252 190 344 124 S450 144 496 106"/>
    <path d="M38 196 C146 136 230 214 332 160 S428 186 506 140" opacity=".55"/>
  </g>
  <text x="36" y="54" font-family="Arial, sans-serif" font-size="22" font-weight="900" fill="#fff7dd" opacity=".88">UI TRIM</text>
</svg>