<svg xmlns="http://www.w3.org/2000/svg" viewBox="0 0 1200 520" role="img" aria-label="Aqua Fantasia v5.1 stability console">
  <defs>
    <linearGradient id="g" x1="0" x2="1" y1="0" y2="1"><stop stop-color="#06142b"/><stop offset=".42" stop-color="#0f766e"/><stop offset=".75" stop-color="#7c3aed"/><stop offset="1" stop-color="#f7d071"/></linearGradient>
    <radialGradient id="r" cx=".32" cy=".25" r=".75"><stop stop-color="#fff7cc" stop-opacity=".72"/><stop offset=".35" stop-color="#67e8f9" stop-opacity=".22"/><stop offset="1" stop-color="#020617" stop-opacity="0"/></radialGradient>
    <filter id="blur"><feGaussianBlur stdDeviation="13"/></filter>
  </defs>
  <rect width="1200" height="520" rx="48" fill="url(#g)"/>
  <rect x="18" y="18" width="1164" height="484" rx="38" fill="#020617" fill-opacity=".42" stroke="#fff7cc" stroke-opacity=".18"/>
  <ellipse cx="260" cy="110" rx="340" ry="150" fill="url(#r)"/>
  <g opacity=".42" filter="url(#blur)">
    <circle cx="930" cy="130" r="130" fill="#22d3ee"/>
    <circle cx="1020" cy="330" r="160" fill="#a78bfa"/>
    <circle cx="690" cy="410" r="100" fill="#f7d071"/>
  </g>
  <g fill="none" stroke="#e0f2fe" stroke-opacity=".2" stroke-width="3">
    <path d="M95 360 C260 265 430 455 595 345 S925 295 1090 385"/>
    <path d="M88 405 C275 325 430 485 625 390 S940 348 1108 425"/>
  </g>
  <g transform="translate(92 86)">
    <rect width="390" height="128" rx="28" fill="#020617" fill-opacity=".42" stroke="#fff" stroke-opacity=".14"/>
    <text x="34" y="58" fill="#fff7cc" font-size="36" font-family="Arial, sans-serif" font-weight="900">STABILITY 5.1</text>
    <text x="34" y="96" fill="#bae6fd" font-size="18" font-family="Arial, sans-serif" font-weight="700">touch latency · cache budget · fishing fps</text>
  </g>
</svg>
