<svg xmlns="http://www.w3.org/2000/svg" viewBox="0 0 640 360" role="img" aria-label="Aqua Fantasia mobile feel panel">
  <defs>
    <linearGradient id="bg" x1="0" x2="1" y1="0" y2="1">
      <stop offset="0" stop-color="#0ea5e9" stop-opacity="0.52"/>
      <stop offset="0.52" stop-color="#14b8a6" stop-opacity="0.34"/>
      <stop offset="1" stop-color="#020617" stop-opacity="0.86"/>
    </linearGradient>
    <radialGradient id="glow" cx="0.5" cy="0.42" r="0.48">
      <stop offset="0" stop-color="#fff7ad" stop-opacity="0.45"/>
      <stop offset="1" stop-color="#67e8f9" stop-opacity="0"/>
    </radialGradient>
    <filter id="soft" x="-30%" y="-30%" width="160%" height="160%">
      <feGaussianBlur stdDeviation="8"/>
    </filter>
  </defs>
  <rect width="640" height="360" rx="36" fill="url(#bg)"/>
  <rect x="18" y="18" width="604" height="324" rx="30" fill="none" stroke="#ffffff" stroke-opacity="0.17" stroke-width="2"/>
  <circle cx="310" cy="154" r="150" fill="url(#glow)"/>
  <path d="M0 255 C90 215 150 292 235 250 C330 203 398 286 492 238 C555 207 596 218 640 190 L640 360 L0 360 Z" fill="#0f766e" fill-opacity="0.28"/>
  <path d="M0 282 C92 241 151 310 240 272 C334 230 418 300 504 255 C560 225 606 231 640 207" fill="none" stroke="#a7f3d0" stroke-opacity="0.28" stroke-width="8" stroke-linecap="round"/>
  <g opacity="0.9">
    <path d="M135 85 C185 40 265 46 300 98 C325 135 316 190 270 214 C216 241 132 220 103 167 C87 137 101 108 135 85 Z" fill="#67e8f9" fill-opacity="0.18" stroke="#ffffff" stroke-opacity="0.22"/>
    <circle cx="235" cy="132" r="28" fill="#fff7ad" fill-opacity="0.88"/>
    <circle cx="235" cy="132" r="52" fill="none" stroke="#fff7ad" stroke-opacity="0.26" stroke-width="10"/>
    <path d="M226 123 C234 116 246 120 250 131 C244 143 229 144 222 134 Z" fill="#082f49" fill-opacity="0.76"/>
  </g>
  <g opacity="0.75" filter="url(#soft)">
    <circle cx="480" cy="95" r="52" fill="#67e8f9" fill-opacity="0.36"/>
    <circle cx="520" cy="154" r="30" fill="#fff7ad" fill-opacity="0.30"/>
    <circle cx="425" cy="220" r="24" fill="#a7f3d0" fill-opacity="0.30"/>
  </g>
  <g fill="#ffffff" fill-opacity="0.42">
    <circle cx="76" cy="75" r="5"/><circle cx="96" cy="118" r="3"/><circle cx="562" cy="78" r="4"/><circle cx="578" cy="132" r="6"/><circle cx="410" cy="86" r="3"/><circle cx="360" cy="252" r="5"/>
  </g>
</svg>
