<svg xmlns="http://www.w3.org/2000/svg" width="256" height="256" viewBox="0 0 256 256">
  <defs><radialGradient id="g" cx="42%" cy="32%" r="72%"><stop offset="0" stop-color="#fff9b8"/><stop offset=".34" stop-color="#ff9e62"/><stop offset=".72" stop-color="#ff5d7a"/><stop offset="1" stop-color="#8b2f63"/></radialGradient><filter id="s"><feDropShadow dx="0" dy="14" stdDeviation="10" flood-opacity=".32"/></filter></defs>
  <ellipse cx="124" cy="128" rx="72" ry="50" fill="url(#g)" filter="url(#s)"/>
  <path d="M186 128l45-35c10-8 22-1 19 12l-11 39 10 39c4 13-9 21-20 13l-43-33c9-20 9-31 0-35Z" fill="#ff7a5c"/>
  <path d="M82 87c21-10 61-10 92 14-25-8-70-2-104 18 1-13 4-25 12-32Z" fill="#fff" opacity=".35"/>
  <circle cx="95" cy="118" r="13" fill="#03111f"/><circle cx="90" cy="113" r="4" fill="#fff"/>
  <path d="M117 139c17 12 33 12 49 0" fill="none" stroke="#8a2d3b" stroke-width="8" stroke-linecap="round" opacity=".58"/>
</svg>
