<svg xmlns="http://www.w3.org/2000/svg" width="720" height="420" viewBox="0 0 720 420" role="img" aria-label="Aqua Fantasia 2.5D glass panel">
  <defs>
    <linearGradient id="g" x1="0" y1="0" x2="1" y2="1">
      <stop offset="0" stop-color="#d9fff8" stop-opacity="0.55"/>
      <stop offset="0.36" stop-color="#42dff7" stop-opacity="0.26"/>
      <stop offset="1" stop-color="#123b79" stop-opacity="0.64"/>
    </linearGradient>
    <linearGradient id="edge" x1="0" y1="0" x2="0" y2="1">
      <stop offset="0" stop-color="#ffffff" stop-opacity="0.82"/>
      <stop offset="0.48" stop-color="#79f2ff" stop-opacity="0.18"/>
      <stop offset="1" stop-color="#031429" stop-opacity="0.58"/>
    </linearGradient>
    <filter id="shadow" x="-8%" y="-10%" width="116%" height="130%">
      <feDropShadow dx="0" dy="20" stdDeviation="18" flood-color="#00111f" flood-opacity="0.48"/>
      <feDropShadow dx="0" dy="4" stdDeviation="3" flood-color="#bffcff" flood-opacity="0.22"/>
    </filter>
  </defs>
  <rect x="24" y="28" width="672" height="356" rx="54" fill="#06172c" opacity="0.88" filter="url(#shadow)"/>
  <rect x="32" y="20" width="656" height="348" rx="48" fill="url(#g)" stroke="url(#edge)" stroke-width="4"/>
  <path d="M78 45c116-30 353-23 540 15 45 9 66 28 66 55v4c-132-34-407-52-640 8V93c0-23 12-41 34-48Z" fill="#fff" opacity="0.18"/>
  <path d="M58 300c164 32 342 21 594-27v45c0 22-20 40-45 43-165 19-350 16-507-8-28-4-48-24-48-48v-6Z" fill="#001e38" opacity="0.32"/>
  <circle cx="608" cy="82" r="14" fill="#ffffff" opacity="0.28"/>
  <circle cx="642" cy="102" r="6" fill="#f9ffb5" opacity="0.58"/>
</svg>
