<svg xmlns="http://www.w3.org/2000/svg" width="520" height="150" viewBox="0 0 520 150" role="img" aria-label="Aqua Fantasia 2.5D primary button">
  <defs>
    <linearGradient id="b" x1="0" y1="0" x2="1" y2="1">
      <stop offset="0" stop-color="#fff9a8"/>
      <stop offset="0.22" stop-color="#8ff6e5"/>
      <stop offset="0.68" stop-color="#3bd5ff"/>
      <stop offset="1" stop-color="#6366f1"/>
    </linearGradient>
    <filter id="s" x="-10%" y="-18%" width="120%" height="150%">
      <feDropShadow dx="0" dy="14" stdDeviation="10" flood-color="#001525" flood-opacity="0.42"/>
      <feDropShadow dx="0" dy="2" stdDeviation="2" flood-color="#fffec8" flood-opacity="0.42"/>
    </filter>
  </defs>
  <rect x="16" y="22" width="488" height="104" rx="52" fill="#07233f" opacity=".7" filter="url(#s)"/>
  <rect x="14" y="14" width="492" height="104" rx="52" fill="url(#b)" stroke="#f8ffda" stroke-opacity=".72" stroke-width="3"/>
  <path d="M67 26h330c46 0 83 13 92 33-124-21-288-19-458 14 2-19 15-39 36-47Z" fill="#fff" opacity=".36"/>
  <path d="M34 92c131 22 289 14 452-15v20c0 23-23 43-51 43H85c-31 0-51-20-51-44v-4Z" fill="#2330a6" opacity=".16"/>
</svg>
