<svg xmlns="http://www.w3.org/2000/svg" width="720" height="160" viewBox="0 0 720 160" role="img" aria-label="Aqua Fantasia 2.5D bottom navigation shell">
  <defs>
    <linearGradient id="n" x1="0" y1="0" x2="0" y2="1">
      <stop offset="0" stop-color="#113d5d" stop-opacity=".92"/>
      <stop offset=".48" stop-color="#071e37" stop-opacity=".96"/>
      <stop offset="1" stop-color="#020817"/>
    </linearGradient>
    <filter id="shadow" x="-5%" y="-20%" width="110%" height="150%">
      <feDropShadow dx="0" dy="-10" stdDeviation="16" flood-color="#6ff7ff" flood-opacity=".18"/>
      <feDropShadow dx="0" dy="-2" stdDeviation="2" flood-color="#fff" flood-opacity=".13"/>
    </filter>
  </defs>
  <path d="M36 25C117 3 256 4 358 19c110 17 248-10 326 8 24 6 34 24 34 48v85H2V74c0-23 12-42 34-49Z" fill="url(#n)" filter="url(#shadow)"/>
  <path d="M0 28c119 31 254 30 375 17 137-14 238-21 345 0v16C584 32 456 57 343 69 212 82 104 73 0 48V28Z" fill="#c9ffff" opacity=".12"/>
  <path d="M0 0h720v2H0z" fill="#ffffff" opacity=".35"/>
</svg>
