<svg xmlns="http://www.w3.org/2000/svg" width="720" height="360" viewBox="0 0 720 360"><defs><linearGradient id="g" x1="0" x2="1" y1="0" y2="1"><stop stop-color="#1e6b89"/><stop offset=".46" stop-color="#0d3b63"/><stop offset="1" stop-color="#07182e"/></linearGradient><radialGradient id="r" cx=".2" cy=".1" r=".9"><stop stop-color="#ffffff" stop-opacity=".45"/><stop offset=".32" stop-color="#6ff5ff" stop-opacity=".18"/><stop offset="1" stop-color="#000000" stop-opacity="0"/></radialGradient><filter id="soft"><feGaussianBlur stdDeviation="10"/></filter></defs><rect x="12" y="10" width="696" height="340" rx="58" fill="url(#g)"/><rect x="22" y="18" width="676" height="320" rx="50" fill="url(#r)"/><path d="M38 54 C180 22 292 54 378 34 C486 10 610 30 682 74 L682 110 C548 78 470 100 372 90 C240 76 148 74 38 114Z" fill="#ffffff" opacity=".14"/><path d="M60 294 C190 242 302 270 430 238 C536 212 618 236 674 256 L674 330 L60 330Z" fill="#54e7ff" opacity=".09"/><rect x="14" y="12" width="692" height="336" rx="56" fill="none" stroke="#e6fffb" stroke-opacity=".34" stroke-width="4"/><rect x="30" y="30" width="660" height="300" rx="42" fill="none" stroke="#001226" stroke-opacity=".34" stroke-width="5"/></svg>